<?xml version="1.0" encoding="UTF-8"?>
<svg id="Layer_2" data-name="Layer 2" xmlns="http://www.w3.org/2000/svg" viewBox="0 0 291.32 291.24">
  <defs>
    <style>
      .cls-1 {
        fill: #2a5caa;
      }

      .cls-2 {
        fill: #e64c3c;
      }
    </style>
  </defs>
  <g id="Layer_1-2" data-name="Layer 1">
    <g>
      <path class="cls-1" d="M291.28,142.05c1.95,80.41-61.28,146.51-140.59,149.19v-120.22c0-4.87,5.89-7.31,9.33-3.87l62.36,62.35,7.14-7.1-62.38-62.36c-3.44-3.44-1.01-9.33,3.87-9.33h88.19v-10.08h-88.34c-4.87,0-7.31-5.89-3.87-9.33l19.31-19.34c.95-.95,1.94-1.89,3.07-2.9l36.24-36.24-1.29-1.18c-.81-.71-1.61-1.48-2.37-2.26-.78-.78-1.54-1.58-2.31-2.39l-1.16-1.28-36.22,36.24c-.95,1.06-1.88,2.07-2.89,3.07l-19.46,19.42c-3.44,3.43-9.32,1.01-9.32-3.85-.02-12.39-.03-27.04-.03-27.51,0-20.67,9.41-39.76,25.83-52.37,1.11-.85,1.76-2.07,1.84-3.44.1-1.41-.41-2.77-1.39-3.73-.91-.91-2.12-1.41-3.4-1.41-.65,0-1.29.13-1.86.38-8.2,3.5-16.93,5.28-25.91,5.28s-17.71-1.78-25.9-5.28c-.58-.25-1.21-.38-1.88-.38-1.26,0-2.49.51-3.4,1.41-.98,1-1.49,2.36-1.39,3.73.1,1.38.76,2.61,1.84,3.44,16.42,12.62,25.83,31.71,25.83,52.37,0,.48-.02,15.12-.03,27.51,0,4.86-5.89,7.29-9.33,3.85-4.18-4.17-7.6-7.58-7.83-7.82-14.62-14.62-21.46-34.76-18.76-55.28.18-1.36-.23-2.69-1.16-3.75-.93-1.03-2.26-1.63-3.62-1.63-1.26,0-2.51.5-3.4,1.39-.43.43-.76.93-1.05,1.59-3.32,8.28-8.23,15.7-14.59,22.04-6.32,6.36-13.74,11.25-21.99,14.57-.63.23-1.2.61-1.63,1.06-.9.9-1.41,2.14-1.41,3.4,0,2.66,2.14,4.81,4.76,4.81.2,0,.41-.03.63-.05,2.87-.38,5.78-.56,8.62-.56,17.63,0,34.2,6.86,46.66,19.32.25.25,3.78,3.8,7.81,7.84,3.43,3.45,1.01,9.32-3.85,9.33-12.39,0-27.03.03-27.51.03-20.68,0-39.76-9.41-52.36-25.85-.91-1.16-2.27-1.83-3.77-1.83-1.29,0-2.51.5-3.44,1.43-.9.93-1.39,2.12-1.39,3.39,0,.63.13,1.28.38,1.86,3.5,8.17,5.28,16.88,5.28,25.91s-1.78,17.71-5.28,25.9c-.25.58-.38,1.21-.38,1.86,0,1.26.51,2.49,1.41,3.39.91.93,2.12,1.43,3.42,1.43,1.48,0,2.86-.68,3.77-1.84,12.6-16.42,31.67-25.83,52.36-25.83.48,0,15.13.02,27.51.03,4.86,0,7.29,5.88,3.85,9.33-4.03,4.04-7.56,7.6-7.81,7.84-12.47,12.47-29.03,19.32-46.66,19.32-2.84,0-5.74-.2-8.63-.56-.2-.03-.41-.03-.61-.03-2.62,0-4.76,2.14-4.76,4.8,0,1.26.5,2.47,1.44,3.44.45.43.96.76,1.54,1.03,8.28,3.3,15.7,8.2,22.06,14.56,6.36,6.37,11.27,13.79,14.59,22.08.25.61.58,1.13,1.03,1.56.9.9,2.12,1.41,3.4,1.41,1.39,0,2.72-.6,3.64-1.64s1.33-2.37,1.15-3.73c-2.71-20.52,4.13-40.67,18.76-55.29.25-.25,3.74-3.72,7.74-7.7,3.45-3.43,9.33-.99,9.33,3.87v120.37C62.51,288.6,0,224.43,0,145.66,0,62.93,68.98-3.7,152.56.16c75.86,3.5,136.88,65.98,138.72,141.89Z"/>
      <path class="cls-2" d="M131.3,144.04c1.16-5.25,5.45-9.46,10.72-10.52,9.07-1.83,16.98,5.04,16.98,13.74,0,4.92-2.52,9.25-6.37,11.75-1.06.68-2.48.29-3.1-.81l-2.64-4.7c-.85-1.5-3.01-1.5-3.86,0l-2.64,4.71c-.62,1.11-2.07,1.5-3.13.8-4.63-3.05-7.34-8.77-5.97-14.97Z"/>
    </g>
  </g>
</svg>