<?xml version="1.0" encoding="UTF-8"?>
<svg id="Layer_2" data-name="Layer 2" xmlns="http://www.w3.org/2000/svg" viewBox="0 0 1000.84 116.15">
  <defs>
    <style>
      .cls-1 {
        fill: #fff;
      }

      .cls-2 {
        fill: #e64c3c;
      }
    </style>
  </defs>
  <g id="Layer_1-2" data-name="Layer 1">
    <g>
      <g>
        <path class="cls-1" d="M116.17,56.65c.78,32.07-24.44,58.43-56.07,59.5v-47.94c0-1.94,2.35-2.92,3.72-1.54l24.87,24.86,2.85-2.83-24.88-24.87c-1.37-1.37-.4-3.72,1.54-3.72h35.17v-4.02h-35.23c-1.94,0-2.91-2.35-1.54-3.72l7.7-7.71c.38-.38.77-.75,1.22-1.16l14.45-14.45-.52-.47c-.32-.28-.64-.59-.95-.9-.31-.31-.62-.63-.92-.95l-.46-.51-14.45,14.45c-.38.42-.75.83-1.15,1.22l-7.76,7.74c-1.37,1.37-3.72.4-3.72-1.53,0-4.94-.01-10.78-.01-10.97,0-8.24,3.75-15.86,10.3-20.89.44-.34.7-.83.73-1.37.04-.56-.17-1.11-.56-1.49-.36-.36-.85-.56-1.36-.56-.26,0-.52.05-.74.15-3.27,1.4-6.75,2.11-10.33,2.11s-7.06-.71-10.33-2.11c-.23-.1-.48-.15-.75-.15-.5,0-.99.21-1.36.56-.39.4-.6.94-.56,1.49.04.55.3,1.04.73,1.37,6.55,5.03,10.3,12.64,10.3,20.89,0,.19,0,6.03-.01,10.97,0,1.94-2.35,2.91-3.72,1.54-1.67-1.66-3.03-3.02-3.12-3.12-5.83-5.83-8.56-13.86-7.48-22.04.07-.54-.09-1.07-.46-1.5-.37-.41-.9-.65-1.44-.65-.5,0-1,.2-1.36.56-.17.17-.3.37-.42.64-1.32,3.3-3.28,6.26-5.82,8.79-2.52,2.54-5.48,4.49-8.77,5.81-.25.09-.48.24-.65.42-.36.36-.56.85-.56,1.36,0,1.06.85,1.92,1.9,1.92.08,0,.17-.01.25-.02,1.15-.15,2.3-.23,3.44-.23,7.03,0,13.64,2.73,18.61,7.71.1.1,1.51,1.52,3.12,3.13,1.37,1.37.4,3.72-1.54,3.72-4.94,0-10.78.01-10.97.01-8.25,0-15.86-3.75-20.88-10.31-.36-.46-.91-.73-1.5-.73-.52,0-1,.2-1.37.57-.36.37-.56.85-.56,1.35,0,.25.05.51.15.74,1.4,3.26,2.11,6.73,2.11,10.33s-.71,7.06-2.11,10.33c-.1.23-.15.48-.15.74,0,.5.21.99.56,1.35.36.37.85.57,1.36.57.59,0,1.14-.27,1.5-.73,5.02-6.55,12.63-10.3,20.88-10.3.19,0,6.03,0,10.97.01,1.94,0,2.91,2.35,1.54,3.72-1.61,1.61-3.02,3.03-3.12,3.13-4.97,4.97-11.58,7.71-18.61,7.71-1.13,0-2.29-.08-3.44-.23-.08-.01-.17-.01-.24-.01-1.05,0-1.9.85-1.9,1.91,0,.5.2.99.58,1.37.18.17.38.3.62.41,3.3,1.32,6.26,3.27,8.8,5.81,2.54,2.54,4.49,5.5,5.82,8.8.1.24.23.45.41.62.36.36.85.56,1.36.56.56,0,1.09-.24,1.45-.66s.53-.95.46-1.49c-1.08-8.18,1.65-16.22,7.48-22.05.1-.1,1.49-1.48,3.09-3.07,1.37-1.37,3.72-.4,3.72,1.54v48.01C24.93,115.1,0,89.5,0,58.09,0,25.1,27.51-1.47,60.84.06c30.25,1.4,54.59,26.31,55.32,56.59Z"/>
        <path class="cls-2" d="M52.36,57.44c.46-2.09,2.17-3.77,4.28-4.2,3.62-.73,6.77,2.01,6.77,5.48,0,1.96-1.01,3.69-2.54,4.68-.42.27-.99.12-1.24-.32l-1.05-1.87c-.34-.6-1.2-.6-1.54,0l-1.05,1.88c-.25.44-.82.6-1.25.32-1.85-1.22-2.93-3.5-2.38-5.97Z"/>
      </g>
      <g>
        <g>
          <path class="cls-1" d="M219.26,81.21h-.93q-4.47,0-4.69-4.57c0-.06-.01-.11-.02-.16l-1.73-38.13c-.01-.93.02-2.05.37-2.41.42-.42,1.84-.46,3.53-.46h.93c.55,0,1-.45,1-1v-4.16c0-.55-.45-1-1-1h-14.52c-.4,0-.76.24-.92.6l-19.05,43.84-19.88-43.85c-.16-.36-.52-.59-.91-.59h-14.27c-.55,0-1,.45-1,1v4.16c0,.55.45,1,1,1h.93c1.75,0,3.24.04,3.66.47.44.45.42,2.02.35,4.02,0,.1.01.21.05.3l-1.37,36.15c-.02.07-.03.15-.04.23q-.15,4.55-4.61,4.55h-.93c-.55,0-1,.45-1,1v4.16c0,.55.45,1,1,1h18.34c.55,0,1-.45,1-1v-4.16c0-.55-.45-1-1-1h-2.46c-5.26,0-5.47-.32-5.58-2.78l1.26-33.19,18.45,38.75,1.53,3.23c.17.35.52.57.9.57h2.38c.39,0,.75-.23.91-.59l20.56-46.19,1.06,36.85q0,3.34-4.19,3.34h-.94c-.55,0-1,.45-1,1v4.16c0,.55.45,1,1,1h21.83c.55,0,1-.45,1-1v-4.16c0-.55-.45-1-1-1Z"/>
          <path class="cls-1" d="M281.05,34.13c-3.79-3.91-10.57-5.22-26.89-5.22s-23.11,1.32-26.89,5.22c-4.02,4.14-4.01,11-4,22.34v3.76c-.01,11.35-.02,18.2,4,22.35,3.79,3.91,10.57,5.22,26.89,5.22s23.11-1.32,26.89-5.22c4.02-4.15,4.01-11,4-22.35v-3.76c.01-11.35.02-18.2-4-22.34ZM237.72,37.28c2.1-3.02,6.4-4.09,16.43-4.09s14.26,1.07,16.36,4.08c2.27,3.27,2.27,9.28,2.26,19.24v3.67c0,9.96.01,15.97-2.26,19.24-2.09,3.02-6.37,4.08-16.36,4.08s-14.33-1.07-16.43-4.09c-2.28-3.27-2.28-9.29-2.27-19.24v-3.65c0-9.96-.01-15.97,2.27-19.24Z"/>
          <path class="cls-1" d="M350.96,83.68h-.42c-1.57,0-2.35.24-2.82.38-.03,0-.06.02-.09.03-.21-.17-.63-.6-1.11-1.09-.88-.9-2.35-2.41-4.81-4.74l-13.01-12.42c11.5-.96,12.73-4.84,12.73-18.53,0-16.47-1.8-17.98-21.38-17.98h-28.62c-.55,0-1,.45-1,1v4.16c0,.55.45,1,1,1h.93q4.43,0,4.43,4.52v36.69q0,4.52-4.43,4.52h-.93c-.55,0-1,.45-1,1v4.16c0,.55.45,1,1,1h21.99c.55,0,1-.45,1-1v-4.16c0-.55-.45-1-1-1h-.93q-4.43,0-4.43-4.52v-10.55h7.93l12.81,11.96c3.99,3.71,6.2,6.08,7.52,7.49,1.69,1.82,2.33,2.5,3.62,2.5.42,0,.84-.08,1.43-.18,1.14-.2,3.06-.54,6.63-.54h2.97c.55,0,1-.45,1-1v-1.7c0-.55-.45-1-1-1ZM317.5,62.02h-9.45v-28.57h11.99c9.15,0,9.7,0,9.7,13.86s-.46,14.71-12.25,14.71Z"/>
          <path class="cls-1" d="M404.89,31.52c0-.64,0-.69-.09-1.33-.07-.49-.49-.86-.99-.86h-53.5c-.5,0-.92.37-.99.86-.09.64-.09.69-.09,1.24l-.51,5.49c-.22,2.4-.4,4.26-.77,8.35-.03.28.07.56.26.77.19.21.46.33.74.33h1.61c.35,0,.68-.18.86-.49l3.58-5.96c3.52-6.15,4.05-6.29,9.92-6.29h6.47v43.08q0,4.52-4.44,4.52h-.93c-.55,0-1,.45-1,1v4.16c0,.55.45,1,1,1h22c.27,0,.56-.12.75-.32.36-.37.35-.42.25-2.76.1-2.3.11-2.39-.25-2.76-.19-.2-.48-.32-.75-.32h-.93q-4.36,0-4.44-4.52v-43.08h6.56c5.79,0,6.31.15,9.92,6.3l3.48,5.94c.18.31.51.49.86.49h1.61c.28,0,.54-.12.73-.32.19-.2.28-.48.26-.76-.48-6.18-.59-7.32-1.09-12.81l-.09-.95Z"/>
          <path class="cls-1" d="M471.45,59.05h-21.15c-.55,0-1,.45-1,1v4.16c0,.55.45,1,1,1h1.02q4.35,0,4.35,4.52v12.82c-2.97.86-6.41.96-13.01.96-19.45,0-20.4-1.18-20.4-25.16s.95-25.15,20.4-25.15c2.36,0,4.26,0,5.88.03,6.19.17,7.06.83,11.57,8.78.39.74.63,1.15.87,1.56.23.4.46.79.83,1.5.17.33.51.53.88.53h1.7c.55,0,1-.45,1-1v-12.99c0-.49-.35-.9-.83-.99-9.1-1.6-10.54-1.71-21.91-1.71-30.16,0-32.59,2.2-32.59,29.45s2.44,29.45,32.59,29.45c12.9,0,14.61-.38,22.92-5.14.31-.18.5-.51.5-.87v-13.76c.07-2.66.07-2.82,4.35-2.82h1.02c.55,0,1-.45,1-1,0-.12-.02-.24-.06-.35,0-.32.03-1.03.06-1.73-.03-.67-.06-1.41-.06-1.73.04-.11.06-.23.06-.35,0-.55-.45-1-1-1Z"/>
          <path class="cls-1" d="M534.04,81.21h-1.44c-4.38,0-4.85-.24-6.3-3.13l-22.34-49.45c-.16-.36-.52-.59-.91-.59h-2.38c-.41,0-.78.25-.93.64l-19.34,49.45c-1.25,2.85-1.69,3.08-5.89,3.08h-1.02c-.55,0-1,.45-1,1v4.16c0,.55.45,1,1,1h17.15c.55,0,1-.45,1-1v-4.16c0-.55-.45-1-1-1h-1.19c-1.48,0-3.96,0-4.31-.5-.38-.55.64-3.3,1.25-4.94.01-.03.02-.07.03-.1l1.52-4h23.29l2.28,5.14c.01.1.04.2.08.29.49,1.11,1.52,3.43,1.39,3.87-.3.25-2.03.25-2.77.25h-.85c-.55,0-1,.45-1,1v4.16c0,.55.45,1,1,1h22.67c.55,0,1-.45,1-1v-4.16c0-.55-.45-1-1-1ZM489.61,67.3l9.1-23.98,10.63,24.04-19.73-.06Z"/>
          <path class="cls-1" d="M598.74,59.05h-21.14c-.55,0-1,.45-1,1v4.16c0,.55.45,1,1,1h1.02q4.35,0,4.35,4.52v12.82c-2.97.86-6.41.96-13.01.96-19.45,0-20.4-1.18-20.4-25.16s.95-25.15,20.4-25.15c2.36,0,4.26,0,5.89.03,6.19.17,7.06.83,11.57,8.78.39.74.63,1.15.87,1.56.23.4.46.79.83,1.5.17.33.51.53.88.53h1.7c.55,0,1-.45,1-1v-12.99c0-.49-.35-.9-.83-.99-9.1-1.6-10.54-1.71-21.91-1.71-30.16,0-32.59,2.2-32.59,29.45s2.44,29.45,32.59,29.45c12.9,0,14.61-.38,22.92-5.14.31-.18.5-.51.5-.87v-13.76c.07-2.66.07-2.82,4.35-2.82h1.02c.55,0,1-.45,1-1,0-.12-.02-.24-.06-.35,0-.32.03-1.03.06-1.73-.03-.67-.06-1.41-.06-1.73.04-.11.06-.23.06-.35,0-.55-.45-1-1-1Z"/>
          <path class="cls-1" d="M651.95,71.55c-.12,0-.23.02-.32.05-.52-.03-.82-.05-.99-.05-.63,0-.93.28-1.07.56l-2.07,2.9c-5.42,7.76-6.26,7.99-13.62,8.07h-11.31v-18.47h5.54c6.42,0,6.94.27,11.07,5.68l.76,1.1c.19.27.49.43.82.43h2.97c.55,0,1-.45,1-1v-15.88c0-.55-.45-1-1-1h-2.97c-.3,0-.58.13-.77.37l-.75.91c-4.15,4.8-4.78,5.09-11.13,5.09h-5.54v-26.7h10.8c7.54,0,7.99.3,12.1,7.95l1.53,2.97c.17.33.51.54.89.54h1.53c.55,0,1-.45,1-1v-13.76c0-.55-.45-1-1-1h-43.48c-.55,0-1,.45-1,1v4.16c0,.55.45,1,1,1h.93q4.44,0,4.44,4.52v36.69q0,4.52-4.44,4.52h-.93c-.55,0-1,.45-1,1v4.16c0,.55.45,1,1,1h43.57c.5,0,.92-.37.99-.86q.08-.53.23-1.06s.02-.07.02-.1c.33-1.91.56-3.28.77-4.46.42-2.44.7-4.09,1.44-8.09.01-.06.02-.12.02-.18,0-.55-.47-1.06-1.02-1.06Z"/>
        </g>
        <g>
          <path class="cls-1" d="M734.33,71.55c-.12,0-.23.02-.32.05-.52-.03-.82-.05-.99-.05-.63,0-.93.29-1.07.56l-2.07,2.9c-5.42,7.76-6.26,7.99-13.62,8.07h-11.31v-18.47h5.54c6.42,0,6.94.27,11.07,5.68l.76,1.1c.19.27.49.43.82.43h2.97c.55,0,1-.45,1-1v-15.88c0-.55-.45-1-1-1h-2.97c-.3,0-.58.13-.77.37l-.75.91c-4.15,4.8-4.78,5.09-11.13,5.09h-5.54v-26.7h10.8c7.54,0,7.99.3,12.1,7.95l1.53,2.97c.17.33.51.54.89.54h1.53c.55,0,1-.45,1-1v-13.76c0-.55-.45-1-1-1h-43.48c-.55,0-1,.45-1,1v4.16c0,.55.45,1,1,1h.93q4.44,0,4.44,4.52v36.69q0,4.52-4.44,4.52h-.93c-.55,0-1,.45-1,1v4.16c0,.55.45,1,1,1h43.57c.5,0,.92-.37.99-.86q.08-.53.23-1.06s.02-.07.02-.1c.33-1.91.56-3.28.77-4.46.42-2.44.7-4.09,1.44-8.09.01-.06.02-.12.02-.18,0-.55-.47-1.06-1.02-1.06Z"/>
          <path class="cls-1" d="M768.65,53.82c-16.23-4.17-16.23-4.78-16.23-10.67,0-9.67.33-9.95,11.74-9.95.56,0,1,0,1.54.05.05.01.11.02.16.03l.88.08c.8.1,1.84.25,3.27.49,1.81.49,2.53,1.39,4.41,4.71.71,1.26,1.2,2.12,1.64,2.88.71,1.24,1.28,2.23,2.43,4.33.18.32.51.52.88.52h1.7c.55,0,1-.45,1-1v-13.84c0-.48-.35-.9-.82-.98-8.06-1.44-9.16-1.54-16.74-1.54-18.81,0-20.53,1.51-20.53,17.98,0,11.08,1.92,12.22,16.97,16,15.94,4.07,16.32,4.7,16.32,11.68,0,8.43,0,8.94-11.99,8.94-3.03,0-4.8-.05-7.84-.47-3.15-.75-4.54-2.8-8.03-8.97-.25-.43-.44-.75-.61-1.02-.39-.64-.62-1.02-1.14-2.06-.17-.34-.52-.55-.89-.55h-1.7c-.55,0-1,.45-1,1v13.84c0,.48.35.9.82.98,8.07,1.44,9.4,1.54,20.39,1.54,18.81,0,20.53-1.43,20.53-17.05,0-11.94-1.94-13.13-17.14-16.93Z"/>
          <path class="cls-1" d="M842.26,45.86c.18.31.51.49.86.49h1.61c.28,0,.54-.12.73-.32.19-.2.28-.48.26-.76-.48-6.18-.59-7.32-1.09-12.81l-.09-.95c0-.64,0-.69-.09-1.33-.07-.49-.49-.86-.99-.86h-53.5c-.5,0-.92.37-.99.86-.09.64-.09.69-.09,1.24l-.51,5.49c-.22,2.4-.4,4.26-.77,8.35-.03.28.07.56.26.77.19.21.46.33.74.33h1.61c.35,0,.68-.18.86-.49l3.58-5.96c3.52-6.15,4.05-6.29,9.92-6.29h6.47v43.08q0,4.52-4.44,4.52h-.93c-.55,0-1,.45-1,1v4.16c0,.55.45,1,1,1h22c.27,0,.56-.12.75-.32.36-.37.35-.42.25-2.76.1-2.3.11-2.39-.25-2.76-.19-.2-.48-.32-.75-.32h-.93q-4.36,0-4.44-4.52v-43.08h6.56c5.79,0,6.31.15,9.92,6.3l3.48,5.94Z"/>
          <path class="cls-1" d="M899.35,81.21h-1.44c-4.38,0-4.85-.24-6.3-3.13l-22.34-49.45c-.16-.36-.52-.59-.91-.59h-2.38c-.41,0-.78.25-.93.64l-19.34,49.45c-1.25,2.85-1.69,3.08-5.89,3.08h-1.02c-.55,0-1,.45-1,1v4.16c0,.55.45,1,1,1h17.16c.55,0,1-.45,1-1v-4.16c0-.55-.45-1-1-1h-1.19c-1.48,0-3.96,0-4.31-.5-.38-.55.64-3.3,1.25-4.94.01-.03.02-.07.03-.1l1.52-4h23.29l2.28,5.14c.01.1.04.2.08.29.49,1.11,1.52,3.43,1.39,3.87-.3.25-2.03.25-2.77.25h-.85c-.55,0-1,.45-1,1v4.16c0,.55.45,1,1,1h22.67c.55,0,1-.45,1-1v-4.16c0-.55-.45-1-1-1ZM854.91,67.3l9.1-23.98,10.63,24.04-19.72-.06Z"/>
          <path class="cls-1" d="M950.4,31.52c0-.64,0-.69-.09-1.33-.07-.49-.49-.86-.99-.86h-53.5c-.5,0-.92.37-.99.86-.09.64-.09.69-.09,1.24l-.51,5.49c-.22,2.4-.4,4.26-.77,8.35-.03.28.07.56.26.77.19.21.46.33.74.33h1.61c.35,0,.68-.18.86-.49l3.58-5.96c3.52-6.15,4.05-6.29,9.92-6.29h6.47v43.08q0,4.52-4.44,4.52h-.93c-.55,0-1,.45-1,1v4.16c0,.55.45,1,1,1h22c.27,0,.56-.12.75-.32.36-.37.35-.42.25-2.76.1-2.3.11-2.39-.25-2.76-.19-.2-.48-.32-.75-.32h-.93q-4.36,0-4.44-4.52v-43.08h6.56c5.79,0,6.31.15,9.92,6.3l3.48,5.94c.18.31.51.49.86.49h1.61c.28,0,.54-.12.73-.32.19-.2.28-.48.26-.76-.48-6.18-.59-7.32-1.09-12.81l-.09-.95Z"/>
          <path class="cls-1" d="M999.82,71.55c-.12,0-.23.02-.32.05-.52-.03-.82-.05-.98-.05-.63,0-.93.29-1.07.56l-2.07,2.9c-5.42,7.76-6.26,7.99-13.62,8.07h-11.31v-18.47h5.54c6.42,0,6.94.27,11.07,5.68l.76,1.1c.19.27.49.43.82.43h2.97c.55,0,1-.45,1-1v-15.88c0-.55-.45-1-1-1h-2.97c-.3,0-.58.13-.77.37l-.75.91c-4.15,4.8-4.78,5.09-11.13,5.09h-5.54v-26.7h10.8c7.54,0,7.99.3,12.11,7.95l1.53,2.97c.17.33.51.54.89.54h1.53c.55,0,1-.45,1-1v-13.76c0-.55-.45-1-1-1h-43.48c-.55,0-1,.45-1,1v4.16c0,.55.45,1,1,1h.94q4.43,0,4.43,4.52v36.69q0,4.52-4.43,4.52h-.94c-.55,0-1,.45-1,1v4.16c0,.55.45,1,1,1h43.57c.5,0,.92-.37.99-.86q.08-.53.23-1.06s.02-.07.02-.1c.33-1.91.56-3.27.76-4.45.42-2.45.7-4.1,1.44-8.1.01-.06.02-.12.02-.18,0-.55-.47-1.06-1.02-1.06Z"/>
        </g>
      </g>
    </g>
  </g>
</svg>