<svg xmlns="http://www.w3.org/2000/svg" width="1200" height="675" viewBox="0 0 1200 675">
  <defs>
    <linearGradient id="bg" x1="0" y1="0" x2="0" y2="1">
      <stop offset="0" stop-color="rgb(41,53,124)"/>
      <stop offset="1" stop-color="rgb(29,37,84)"/>
    </linearGradient>
    <pattern id="grid" width="30" height="30" patternUnits="userSpaceOnUse">
      <path d="M30 0H0V30" fill="none" stroke="rgba(231,233,237,0.10)" stroke-width="1"/>
    </pattern>
  </defs>
  <rect width="1200" height="675" fill="url(#bg)"/>
  <rect width="1200" height="675" fill="url(#grid)"/>
  <rect x="0" y="318" width="57" height="202" fill="rgba(255,255,255,0.07)"/><rect x="30" y="352" width="8" height="10" fill="rgba(255,255,255,0.1)"/><rect x="30" y="378" width="8" height="10" fill="rgba(255,255,255,0.22)"/><rect x="8" y="430" width="8" height="10" fill="rgba(255,255,255,0.1)"/><rect x="8" y="456" width="8" height="10" fill="rgba(255,255,255,0.22)"/><rect x="30" y="482" width="8" height="10" fill="rgba(255,255,255,0.1)"/><rect x="65" y="240" width="95" height="280" fill="rgba(255,255,255,0.07)"/><rect x="117" y="274" width="8" height="10" fill="rgba(255,255,255,0.1)"/><rect x="73" y="300" width="8" height="10" fill="rgba(255,255,255,0.22)"/><rect x="139" y="300" width="8" height="10" fill="rgba(255,255,255,0.1)"/><rect x="95" y="326" width="8" height="10" fill="rgba(255,255,255,0.22)"/><rect x="73" y="352" width="8" height="10" fill="rgba(255,255,255,0.1)"/><rect x="117" y="352" width="8" height="10" fill="rgba(255,255,255,0.22)"/><rect x="95" y="378" width="8" height="10" fill="rgba(255,255,255,0.1)"/><rect x="139" y="378" width="8" height="10" fill="rgba(255,255,255,0.22)"/><rect x="117" y="404" width="8" height="10" fill="rgba(255,255,255,0.1)"/><rect x="73" y="430" width="8" height="10" fill="rgba(255,255,255,0.22)"/><rect x="139" y="430" width="8" height="10" fill="rgba(255,255,255,0.1)"/><rect x="95" y="456" width="8" height="10" fill="rgba(255,255,255,0.22)"/><rect x="73" y="482" width="8" height="10" fill="rgba(255,255,255,0.1)"/><rect x="117" y="482" width="8" height="10" fill="rgba(255,255,255,0.22)"/><rect x="168" y="294" width="61" height="226" fill="rgba(255,255,255,0.07)"/><rect x="198" y="328" width="8" height="10" fill="rgba(255,255,255,0.22)"/><rect x="176" y="380" width="8" height="10" fill="rgba(255,255,255,0.1)"/><rect x="176" y="406" width="8" height="10" fill="rgba(255,255,255,0.22)"/><rect x="198" y="432" width="8" height="10" fill="rgba(255,255,255,0.1)"/><rect x="198" y="458" width="8" height="10" fill="rgba(255,255,255,0.22)"/><rect x="237" y="262" width="113" height="258" fill="rgba(255,255,255,0.07)"/><rect x="245" y="296" width="8" height="10" fill="rgba(255,255,255,0.22)"/><rect x="311" y="296" width="8" height="10" fill="rgba(255,255,255,0.1)"/><rect x="245" y="322" width="8" height="10" fill="rgba(255,255,255,0.22)"/><rect x="311" y="322" width="8" height="10" fill="rgba(255,255,255,0.1)"/><rect x="245" y="348" width="8" height="10" fill="rgba(255,255,255,0.22)"/><rect x="311" y="348" width="8" height="10" fill="rgba(255,255,255,0.1)"/><rect x="245" y="374" width="8" height="10" fill="rgba(255,255,255,0.22)"/><rect x="311" y="374" width="8" height="10" fill="rgba(255,255,255,0.1)"/><rect x="245" y="400" width="8" height="10" fill="rgba(255,255,255,0.22)"/><rect x="311" y="400" width="8" height="10" fill="rgba(255,255,255,0.1)"/><rect x="245" y="426" width="8" height="10" fill="rgba(255,255,255,0.22)"/><rect x="311" y="426" width="8" height="10" fill="rgba(255,255,255,0.1)"/><rect x="245" y="452" width="8" height="10" fill="rgba(255,255,255,0.22)"/><rect x="311" y="452" width="8" height="10" fill="rgba(255,255,255,0.1)"/><rect x="245" y="478" width="8" height="10" fill="rgba(255,255,255,0.22)"/><rect x="311" y="478" width="8" height="10" fill="rgba(255,255,255,0.1)"/><rect x="358" y="428" width="47" height="92" fill="rgba(255,255,255,0.07)"/><rect x="388" y="462" width="8" height="10" fill="rgba(255,255,255,0.1)"/><rect x="388" y="488" width="8" height="10" fill="rgba(255,255,255,0.22)"/><rect x="413" y="406" width="89" height="114" fill="rgba(255,255,255,0.07)"/><rect x="421" y="440" width="8" height="10" fill="rgba(255,255,255,0.1)"/><rect x="465" y="440" width="8" height="10" fill="rgba(255,255,255,0.22)"/><rect x="443" y="466" width="8" height="10" fill="rgba(255,255,255,0.1)"/><rect x="487" y="466" width="8" height="10" fill="rgba(255,255,255,0.22)"/><rect x="465" y="492" width="8" height="10" fill="rgba(255,255,255,0.1)"/><rect x="510" y="228" width="67" height="292" fill="rgba(255,255,255,0.07)"/><rect x="540" y="262" width="8" height="10" fill="rgba(255,255,255,0.1)"/><rect x="518" y="288" width="8" height="10" fill="rgba(255,255,255,0.22)"/><rect x="518" y="314" width="8" height="10" fill="rgba(255,255,255,0.1)"/><rect x="562" y="314" width="8" height="10" fill="rgba(255,255,255,0.22)"/><rect x="562" y="340" width="8" height="10" fill="rgba(255,255,255,0.1)"/><rect x="540" y="366" width="8" height="10" fill="rgba(255,255,255,0.22)"/><rect x="540" y="392" width="8" height="10" fill="rgba(255,255,255,0.1)"/><rect x="518" y="418" width="8" height="10" fill="rgba(255,255,255,0.22)"/><rect x="518" y="444" width="8" height="10" fill="rgba(255,255,255,0.1)"/><rect x="562" y="444" width="8" height="10" fill="rgba(255,255,255,0.22)"/><rect x="562" y="470" width="8" height="10" fill="rgba(255,255,255,0.1)"/><rect x="540" y="496" width="8" height="10" fill="rgba(255,255,255,0.22)"/><rect x="585" y="424" width="111" height="96" fill="rgba(255,255,255,0.07)"/><rect x="615" y="458" width="8" height="10" fill="rgba(255,255,255,0.22)"/><rect x="681" y="458" width="8" height="10" fill="rgba(255,255,255,0.1)"/><rect x="615" y="484" width="8" height="10" fill="rgba(255,255,255,0.22)"/><rect x="681" y="484" width="8" height="10" fill="rgba(255,255,255,0.1)"/><rect x="704" y="280" width="105" height="240" fill="rgba(255,255,255,0.07)"/><rect x="756" y="314" width="8" height="10" fill="rgba(255,255,255,0.1)"/><rect x="712" y="340" width="8" height="10" fill="rgba(255,255,255,0.22)"/><rect x="778" y="340" width="8" height="10" fill="rgba(255,255,255,0.1)"/><rect x="734" y="366" width="8" height="10" fill="rgba(255,255,255,0.22)"/><rect x="712" y="392" width="8" height="10" fill="rgba(255,255,255,0.1)"/><rect x="756" y="392" width="8" height="10" fill="rgba(255,255,255,0.22)"/><rect x="734" y="418" width="8" height="10" fill="rgba(255,255,255,0.1)"/><rect x="778" y="418" width="8" height="10" fill="rgba(255,255,255,0.22)"/><rect x="756" y="444" width="8" height="10" fill="rgba(255,255,255,0.1)"/><rect x="712" y="470" width="8" height="10" fill="rgba(255,255,255,0.22)"/><rect x="778" y="470" width="8" height="10" fill="rgba(255,255,255,0.1)"/><rect x="734" y="496" width="8" height="10" fill="rgba(255,255,255,0.22)"/><rect x="817" y="242" width="73" height="278" fill="rgba(255,255,255,0.07)"/><rect x="825" y="276" width="8" height="10" fill="rgba(255,255,255,0.22)"/><rect x="825" y="302" width="8" height="10" fill="rgba(255,255,255,0.1)"/><rect x="869" y="302" width="8" height="10" fill="rgba(255,255,255,0.22)"/><rect x="869" y="328" width="8" height="10" fill="rgba(255,255,255,0.1)"/><rect x="847" y="354" width="8" height="10" fill="rgba(255,255,255,0.22)"/><rect x="847" y="380" width="8" height="10" fill="rgba(255,255,255,0.1)"/><rect x="825" y="406" width="8" height="10" fill="rgba(255,255,255,0.22)"/><rect x="825" y="432" width="8" height="10" fill="rgba(255,255,255,0.1)"/><rect x="869" y="432" width="8" height="10" fill="rgba(255,255,255,0.22)"/><rect x="869" y="458" width="8" height="10" fill="rgba(255,255,255,0.1)"/><rect x="847" y="484" width="8" height="10" fill="rgba(255,255,255,0.22)"/><rect x="898" y="429" width="96" height="91" fill="rgba(255,255,255,0.07)"/><rect x="928" y="463" width="8" height="10" fill="rgba(255,255,255,0.22)"/><rect x="906" y="489" width="8" height="10" fill="rgba(255,255,255,0.1)"/><rect x="950" y="489" width="8" height="10" fill="rgba(255,255,255,0.22)"/><rect x="1002" y="259" width="76" height="261" fill="rgba(255,255,255,0.07)"/><rect x="1032" y="293" width="8" height="10" fill="rgba(255,255,255,0.22)"/><rect x="1032" y="319" width="8" height="10" fill="rgba(255,255,255,0.1)"/><rect x="1010" y="345" width="8" height="10" fill="rgba(255,255,255,0.22)"/><rect x="1010" y="371" width="8" height="10" fill="rgba(255,255,255,0.1)"/><rect x="1054" y="371" width="8" height="10" fill="rgba(255,255,255,0.22)"/><rect x="1054" y="397" width="8" height="10" fill="rgba(255,255,255,0.1)"/><rect x="1032" y="423" width="8" height="10" fill="rgba(255,255,255,0.22)"/><rect x="1032" y="449" width="8" height="10" fill="rgba(255,255,255,0.1)"/><rect x="1010" y="475" width="8" height="10" fill="rgba(255,255,255,0.22)"/><rect x="1086" y="317" width="78" height="203" fill="rgba(255,255,255,0.07)"/><rect x="1094" y="351" width="8" height="10" fill="rgba(255,255,255,0.22)"/><rect x="1094" y="377" width="8" height="10" fill="rgba(255,255,255,0.1)"/><rect x="1138" y="377" width="8" height="10" fill="rgba(255,255,255,0.22)"/><rect x="1138" y="403" width="8" height="10" fill="rgba(255,255,255,0.1)"/><rect x="1116" y="429" width="8" height="10" fill="rgba(255,255,255,0.22)"/><rect x="1116" y="455" width="8" height="10" fill="rgba(255,255,255,0.1)"/><rect x="1094" y="481" width="8" height="10" fill="rgba(255,255,255,0.22)"/><rect x="1172" y="337" width="68" height="183" fill="rgba(255,255,255,0.07)"/><rect x="1180" y="371" width="8" height="10" fill="rgba(255,255,255,0.22)"/><rect x="1180" y="397" width="8" height="10" fill="rgba(255,255,255,0.1)"/><rect x="1224" y="397" width="8" height="10" fill="rgba(255,255,255,0.22)"/><rect x="1224" y="423" width="8" height="10" fill="rgba(255,255,255,0.1)"/><rect x="1202" y="449" width="8" height="10" fill="rgba(255,255,255,0.22)"/><rect x="1202" y="475" width="8" height="10" fill="rgba(255,255,255,0.1)"/>
  <rect y="518" width="1200" height="157" fill="rgba(13,18,48,0.55)"/>
  <text x="48" y="590" font-family="monospace" font-size="15" letter-spacing="4" fill="rgba(255,255,255,0.55)">EXTERIOR — 01</text>
  <text x="48" y="632" font-family="Georgia, serif" font-size="40" fill="#ffffff">Monaco</text>
  <g transform="translate(1080,560) scale(0.28)" opacity="0.5">
    <circle cx="145" cy="145" r="145" fill="rgba(255,255,255,0.15)"/>
  </g>
  <text x="1152" y="60" text-anchor="end" font-family="monospace" font-size="13" letter-spacing="3" fill="rgba(255,255,255,0.4)">MRT · TOKENIZED ASSET</text>
</svg>