<svg xmlns="http://www.w3.org/2000/svg" width="1200" height="675" viewBox="0 0 1200 675">
  <defs>
    <linearGradient id="bg" x1="0" y1="0" x2="0" y2="1">
      <stop offset="0" stop-color="rgb(36,64,150)"/>
      <stop offset="1" stop-color="rgb(24,48,110)"/>
    </linearGradient>
    <pattern id="grid" width="30" height="30" patternUnits="userSpaceOnUse">
      <path d="M30 0H0V30" fill="none" stroke="rgba(231,233,237,0.10)" stroke-width="1"/>
    </pattern>
  </defs>
  <rect width="1200" height="675" fill="url(#bg)"/>
  <rect width="1200" height="675" fill="url(#grid)"/>
  <rect x="0" y="244" width="41" height="276" fill="rgba(255,255,255,0.07)"/><rect x="30" y="278" width="8" height="10" fill="rgba(255,255,255,0.22)"/><rect x="8" y="330" width="8" height="10" fill="rgba(255,255,255,0.1)"/><rect x="8" y="356" width="8" height="10" fill="rgba(255,255,255,0.22)"/><rect x="30" y="382" width="8" height="10" fill="rgba(255,255,255,0.1)"/><rect x="30" y="408" width="8" height="10" fill="rgba(255,255,255,0.22)"/><rect x="8" y="460" width="8" height="10" fill="rgba(255,255,255,0.1)"/><rect x="8" y="486" width="8" height="10" fill="rgba(255,255,255,0.22)"/><rect x="49" y="344" width="61" height="176" fill="rgba(255,255,255,0.07)"/><rect x="79" y="378" width="8" height="10" fill="rgba(255,255,255,0.22)"/><rect x="57" y="430" width="8" height="10" fill="rgba(255,255,255,0.1)"/><rect x="57" y="456" width="8" height="10" fill="rgba(255,255,255,0.22)"/><rect x="79" y="482" width="8" height="10" fill="rgba(255,255,255,0.1)"/><rect x="118" y="340" width="55" height="180" fill="rgba(255,255,255,0.07)"/><rect x="126" y="400" width="8" height="10" fill="rgba(255,255,255,0.1)"/><rect x="126" y="426" width="8" height="10" fill="rgba(255,255,255,0.22)"/><rect x="148" y="452" width="8" height="10" fill="rgba(255,255,255,0.1)"/><rect x="148" y="478" width="8" height="10" fill="rgba(255,255,255,0.22)"/><rect x="181" y="296" width="49" height="224" fill="rgba(255,255,255,0.07)"/><rect x="189" y="330" width="8" height="10" fill="rgba(255,255,255,0.1)"/><rect x="189" y="356" width="8" height="10" fill="rgba(255,255,255,0.22)"/><rect x="211" y="382" width="8" height="10" fill="rgba(255,255,255,0.1)"/><rect x="211" y="408" width="8" height="10" fill="rgba(255,255,255,0.22)"/><rect x="189" y="460" width="8" height="10" fill="rgba(255,255,255,0.1)"/><rect x="189" y="486" width="8" height="10" fill="rgba(255,255,255,0.22)"/><rect x="238" y="424" width="101" height="96" fill="rgba(255,255,255,0.07)"/><rect x="268" y="458" width="8" height="10" fill="rgba(255,255,255,0.22)"/><rect x="246" y="484" width="8" height="10" fill="rgba(255,255,255,0.1)"/><rect x="290" y="484" width="8" height="10" fill="rgba(255,255,255,0.22)"/><rect x="347" y="274" width="51" height="246" fill="rgba(255,255,255,0.07)"/><rect x="377" y="308" width="8" height="10" fill="rgba(255,255,255,0.22)"/><rect x="355" y="360" width="8" height="10" fill="rgba(255,255,255,0.1)"/><rect x="355" y="386" width="8" height="10" fill="rgba(255,255,255,0.22)"/><rect x="377" y="412" width="8" height="10" fill="rgba(255,255,255,0.1)"/><rect x="377" y="438" width="8" height="10" fill="rgba(255,255,255,0.22)"/><rect x="355" y="490" width="8" height="10" fill="rgba(255,255,255,0.1)"/><rect x="406" y="228" width="87" height="292" fill="rgba(255,255,255,0.07)"/><rect x="436" y="262" width="8" height="10" fill="rgba(255,255,255,0.1)"/><rect x="480" y="262" width="8" height="10" fill="rgba(255,255,255,0.22)"/><rect x="458" y="288" width="8" height="10" fill="rgba(255,255,255,0.1)"/><rect x="414" y="314" width="8" height="10" fill="rgba(255,255,255,0.22)"/><rect x="480" y="314" width="8" height="10" fill="rgba(255,255,255,0.1)"/><rect x="436" y="340" width="8" height="10" fill="rgba(255,255,255,0.22)"/><rect x="414" y="366" width="8" height="10" fill="rgba(255,255,255,0.1)"/><rect x="458" y="366" width="8" height="10" fill="rgba(255,255,255,0.22)"/><rect x="436" y="392" width="8" height="10" fill="rgba(255,255,255,0.1)"/><rect x="480" y="392" width="8" height="10" fill="rgba(255,255,255,0.22)"/><rect x="458" y="418" width="8" height="10" fill="rgba(255,255,255,0.1)"/><rect x="414" y="444" width="8" height="10" fill="rgba(255,255,255,0.22)"/><rect x="480" y="444" width="8" height="10" fill="rgba(255,255,255,0.1)"/><rect x="436" y="470" width="8" height="10" fill="rgba(255,255,255,0.22)"/><rect x="414" y="496" width="8" height="10" fill="rgba(255,255,255,0.1)"/><rect x="458" y="496" width="8" height="10" fill="rgba(255,255,255,0.22)"/><rect x="501" y="354" width="111" height="166" fill="rgba(255,255,255,0.07)"/><rect x="531" y="388" width="8" height="10" fill="rgba(255,255,255,0.22)"/><rect x="597" y="388" width="8" height="10" fill="rgba(255,255,255,0.1)"/><rect x="531" y="414" width="8" height="10" fill="rgba(255,255,255,0.22)"/><rect x="597" y="414" width="8" height="10" fill="rgba(255,255,255,0.1)"/><rect x="531" y="440" width="8" height="10" fill="rgba(255,255,255,0.22)"/><rect x="597" y="440" width="8" height="10" fill="rgba(255,255,255,0.1)"/><rect x="531" y="466" width="8" height="10" fill="rgba(255,255,255,0.22)"/><rect x="597" y="466" width="8" height="10" fill="rgba(255,255,255,0.1)"/><rect x="531" y="492" width="8" height="10" fill="rgba(255,255,255,0.22)"/><rect x="597" y="492" width="8" height="10" fill="rgba(255,255,255,0.1)"/><rect x="620" y="295" width="120" height="225" fill="rgba(255,255,255,0.07)"/><rect x="672" y="329" width="8" height="10" fill="rgba(255,255,255,0.1)"/><rect x="716" y="329" width="8" height="10" fill="rgba(255,255,255,0.22)"/><rect x="672" y="355" width="8" height="10" fill="rgba(255,255,255,0.1)"/><rect x="716" y="355" width="8" height="10" fill="rgba(255,255,255,0.22)"/><rect x="672" y="381" width="8" height="10" fill="rgba(255,255,255,0.1)"/><rect x="716" y="381" width="8" height="10" fill="rgba(255,255,255,0.22)"/><rect x="672" y="407" width="8" height="10" fill="rgba(255,255,255,0.1)"/><rect x="716" y="407" width="8" height="10" fill="rgba(255,255,255,0.22)"/><rect x="672" y="433" width="8" height="10" fill="rgba(255,255,255,0.1)"/><rect x="716" y="433" width="8" height="10" fill="rgba(255,255,255,0.22)"/><rect x="672" y="459" width="8" height="10" fill="rgba(255,255,255,0.1)"/><rect x="716" y="459" width="8" height="10" fill="rgba(255,255,255,0.22)"/><rect x="672" y="485" width="8" height="10" fill="rgba(255,255,255,0.1)"/><rect x="716" y="485" width="8" height="10" fill="rgba(255,255,255,0.22)"/><rect x="748" y="346" width="109" height="174" fill="rgba(255,255,255,0.07)"/><rect x="756" y="380" width="8" height="10" fill="rgba(255,255,255,0.1)"/><rect x="800" y="380" width="8" height="10" fill="rgba(255,255,255,0.22)"/><rect x="756" y="406" width="8" height="10" fill="rgba(255,255,255,0.1)"/><rect x="800" y="406" width="8" height="10" fill="rgba(255,255,255,0.22)"/><rect x="756" y="432" width="8" height="10" fill="rgba(255,255,255,0.1)"/><rect x="800" y="432" width="8" height="10" fill="rgba(255,255,255,0.22)"/><rect x="756" y="458" width="8" height="10" fill="rgba(255,255,255,0.1)"/><rect x="800" y="458" width="8" height="10" fill="rgba(255,255,255,0.22)"/><rect x="756" y="484" width="8" height="10" fill="rgba(255,255,255,0.1)"/><rect x="800" y="484" width="8" height="10" fill="rgba(255,255,255,0.22)"/><rect x="865" y="387" width="118" height="133" fill="rgba(255,255,255,0.07)"/><rect x="873" y="421" width="8" height="10" fill="rgba(255,255,255,0.22)"/><rect x="939" y="421" width="8" height="10" fill="rgba(255,255,255,0.1)"/><rect x="873" y="447" width="8" height="10" fill="rgba(255,255,255,0.22)"/><rect x="939" y="447" width="8" height="10" fill="rgba(255,255,255,0.1)"/><rect x="873" y="473" width="8" height="10" fill="rgba(255,255,255,0.22)"/><rect x="939" y="473" width="8" height="10" fill="rgba(255,255,255,0.1)"/><rect x="873" y="499" width="8" height="10" fill="rgba(255,255,255,0.22)"/><rect x="939" y="499" width="8" height="10" fill="rgba(255,255,255,0.1)"/><rect x="991" y="253" width="32" height="267" fill="rgba(255,255,255,0.07)"/><rect x="999" y="313" width="8" height="10" fill="rgba(255,255,255,0.1)"/><rect x="999" y="365" width="8" height="10" fill="rgba(255,255,255,0.22)"/><rect x="999" y="443" width="8" height="10" fill="rgba(255,255,255,0.1)"/><rect x="999" y="495" width="8" height="10" fill="rgba(255,255,255,0.22)"/><rect x="1031" y="306" width="79" height="214" fill="rgba(255,255,255,0.07)"/><rect x="1039" y="340" width="8" height="10" fill="rgba(255,255,255,0.1)"/><rect x="1083" y="340" width="8" height="10" fill="rgba(255,255,255,0.22)"/><rect x="1083" y="366" width="8" height="10" fill="rgba(255,255,255,0.1)"/><rect x="1061" y="392" width="8" height="10" fill="rgba(255,255,255,0.22)"/><rect x="1061" y="418" width="8" height="10" fill="rgba(255,255,255,0.1)"/><rect x="1039" y="444" width="8" height="10" fill="rgba(255,255,255,0.22)"/><rect x="1039" y="470" width="8" height="10" fill="rgba(255,255,255,0.1)"/><rect x="1083" y="470" width="8" height="10" fill="rgba(255,255,255,0.22)"/><rect x="1083" y="496" width="8" height="10" fill="rgba(255,255,255,0.1)"/><rect x="1118" y="255" width="60" height="265" fill="rgba(255,255,255,0.07)"/><rect x="1126" y="315" width="8" height="10" fill="rgba(255,255,255,0.1)"/><rect x="1126" y="341" width="8" height="10" fill="rgba(255,255,255,0.22)"/><rect x="1148" y="367" width="8" height="10" fill="rgba(255,255,255,0.1)"/><rect x="1148" y="393" width="8" height="10" fill="rgba(255,255,255,0.22)"/><rect x="1126" y="445" width="8" height="10" fill="rgba(255,255,255,0.1)"/><rect x="1126" y="471" width="8" height="10" fill="rgba(255,255,255,0.22)"/><rect x="1148" y="497" width="8" height="10" fill="rgba(255,255,255,0.1)"/><rect x="1186" y="415" width="50" height="105" fill="rgba(255,255,255,0.07)"/><rect x="1194" y="475" width="8" height="10" fill="rgba(255,255,255,0.1)"/>
  <rect y="518" width="1200" height="157" fill="rgba(13,18,48,0.55)"/>
  <text x="48" y="590" font-family="monospace" font-size="15" letter-spacing="4" fill="rgba(255,255,255,0.55)">VIEW — 03</text>
  <text x="48" y="632" font-family="Georgia, serif" font-size="40" fill="#ffffff">Monaco</text>
  <g transform="translate(1080,560) scale(0.28)" opacity="0.5">
    <circle cx="145" cy="145" r="145" fill="rgba(255,255,255,0.15)"/>
  </g>
  <text x="1152" y="60" text-anchor="end" font-family="monospace" font-size="13" letter-spacing="3" fill="rgba(255,255,255,0.4)">MRT · TOKENIZED ASSET</text>
</svg>