<svg xmlns="http://www.w3.org/2000/svg" width="1200" height="675" viewBox="0 0 1200 675">
  <defs>
    <linearGradient id="bg" x1="0" y1="0" x2="0" y2="1">
      <stop offset="0" stop-color="rgb(51,108,211)"/>
      <stop offset="1" stop-color="rgb(39,92,171)"/>
    </linearGradient>
    <pattern id="grid" width="30" height="30" patternUnits="userSpaceOnUse">
      <path d="M30 0H0V30" fill="none" stroke="rgba(231,233,237,0.10)" stroke-width="1"/>
    </pattern>
  </defs>
  <rect width="1200" height="675" fill="url(#bg)"/>
  <rect width="1200" height="675" fill="url(#grid)"/>
  <rect x="0" y="411" width="94" height="109" fill="rgba(255,255,255,0.07)"/><rect x="8" y="445" width="8" height="10" fill="rgba(255,255,255,0.1)"/><rect x="52" y="445" width="8" height="10" fill="rgba(255,255,255,0.22)"/><rect x="30" y="471" width="8" height="10" fill="rgba(255,255,255,0.1)"/><rect x="74" y="471" width="8" height="10" fill="rgba(255,255,255,0.22)"/><rect x="52" y="497" width="8" height="10" fill="rgba(255,255,255,0.1)"/><rect x="102" y="193" width="102" height="327" fill="rgba(255,255,255,0.07)"/><rect x="132" y="227" width="8" height="10" fill="rgba(255,255,255,0.1)"/><rect x="176" y="227" width="8" height="10" fill="rgba(255,255,255,0.22)"/><rect x="154" y="253" width="8" height="10" fill="rgba(255,255,255,0.1)"/><rect x="110" y="279" width="8" height="10" fill="rgba(255,255,255,0.22)"/><rect x="176" y="279" width="8" height="10" fill="rgba(255,255,255,0.1)"/><rect x="132" y="305" width="8" height="10" fill="rgba(255,255,255,0.22)"/><rect x="110" y="331" width="8" height="10" fill="rgba(255,255,255,0.1)"/><rect x="154" y="331" width="8" height="10" fill="rgba(255,255,255,0.22)"/><rect x="132" y="357" width="8" height="10" fill="rgba(255,255,255,0.1)"/><rect x="176" y="357" width="8" height="10" fill="rgba(255,255,255,0.22)"/><rect x="154" y="383" width="8" height="10" fill="rgba(255,255,255,0.1)"/><rect x="110" y="409" width="8" height="10" fill="rgba(255,255,255,0.22)"/><rect x="176" y="409" width="8" height="10" fill="rgba(255,255,255,0.1)"/><rect x="132" y="435" width="8" height="10" fill="rgba(255,255,255,0.22)"/><rect x="110" y="461" width="8" height="10" fill="rgba(255,255,255,0.1)"/><rect x="154" y="461" width="8" height="10" fill="rgba(255,255,255,0.22)"/><rect x="132" y="487" width="8" height="10" fill="rgba(255,255,255,0.1)"/><rect x="176" y="487" width="8" height="10" fill="rgba(255,255,255,0.22)"/><rect x="212" y="191" width="64" height="329" fill="rgba(255,255,255,0.07)"/><rect x="220" y="225" width="8" height="10" fill="rgba(255,255,255,0.1)"/><rect x="264" y="225" width="8" height="10" fill="rgba(255,255,255,0.22)"/><rect x="264" y="251" width="8" height="10" fill="rgba(255,255,255,0.1)"/><rect x="242" y="277" width="8" height="10" fill="rgba(255,255,255,0.22)"/><rect x="242" y="303" width="8" height="10" fill="rgba(255,255,255,0.1)"/><rect x="220" y="329" width="8" height="10" fill="rgba(255,255,255,0.22)"/><rect x="220" y="355" width="8" height="10" fill="rgba(255,255,255,0.1)"/><rect x="264" y="355" width="8" height="10" fill="rgba(255,255,255,0.22)"/><rect x="264" y="381" width="8" height="10" fill="rgba(255,255,255,0.1)"/><rect x="242" y="407" width="8" height="10" fill="rgba(255,255,255,0.22)"/><rect x="242" y="433" width="8" height="10" fill="rgba(255,255,255,0.1)"/><rect x="220" y="459" width="8" height="10" fill="rgba(255,255,255,0.22)"/><rect x="220" y="485" width="8" height="10" fill="rgba(255,255,255,0.1)"/><rect x="264" y="485" width="8" height="10" fill="rgba(255,255,255,0.22)"/><rect x="284" y="396" width="39" height="124" fill="rgba(255,255,255,0.07)"/><rect x="292" y="430" width="8" height="10" fill="rgba(255,255,255,0.1)"/><rect x="292" y="482" width="8" height="10" fill="rgba(255,255,255,0.22)"/><rect x="331" y="311" width="104" height="209" fill="rgba(255,255,255,0.07)"/><rect x="339" y="345" width="8" height="10" fill="rgba(255,255,255,0.1)"/><rect x="383" y="345" width="8" height="10" fill="rgba(255,255,255,0.22)"/><rect x="361" y="371" width="8" height="10" fill="rgba(255,255,255,0.1)"/><rect x="405" y="371" width="8" height="10" fill="rgba(255,255,255,0.22)"/><rect x="383" y="397" width="8" height="10" fill="rgba(255,255,255,0.1)"/><rect x="339" y="423" width="8" height="10" fill="rgba(255,255,255,0.22)"/><rect x="405" y="423" width="8" height="10" fill="rgba(255,255,255,0.1)"/><rect x="361" y="449" width="8" height="10" fill="rgba(255,255,255,0.22)"/><rect x="339" y="475" width="8" height="10" fill="rgba(255,255,255,0.1)"/><rect x="383" y="475" width="8" height="10" fill="rgba(255,255,255,0.22)"/><rect x="443" y="349" width="76" height="171" fill="rgba(255,255,255,0.07)"/><rect x="473" y="383" width="8" height="10" fill="rgba(255,255,255,0.22)"/><rect x="473" y="409" width="8" height="10" fill="rgba(255,255,255,0.1)"/><rect x="451" y="435" width="8" height="10" fill="rgba(255,255,255,0.22)"/><rect x="451" y="461" width="8" height="10" fill="rgba(255,255,255,0.1)"/><rect x="495" y="461" width="8" height="10" fill="rgba(255,255,255,0.22)"/><rect x="495" y="487" width="8" height="10" fill="rgba(255,255,255,0.1)"/><rect x="527" y="400" width="105" height="120" fill="rgba(255,255,255,0.07)"/><rect x="579" y="434" width="8" height="10" fill="rgba(255,255,255,0.1)"/><rect x="535" y="460" width="8" height="10" fill="rgba(255,255,255,0.22)"/><rect x="601" y="460" width="8" height="10" fill="rgba(255,255,255,0.1)"/><rect x="557" y="486" width="8" height="10" fill="rgba(255,255,255,0.22)"/><rect x="640" y="342" width="53" height="178" fill="rgba(255,255,255,0.07)"/><rect x="648" y="376" width="8" height="10" fill="rgba(255,255,255,0.22)"/><rect x="670" y="402" width="8" height="10" fill="rgba(255,255,255,0.1)"/><rect x="670" y="428" width="8" height="10" fill="rgba(255,255,255,0.22)"/><rect x="648" y="480" width="8" height="10" fill="rgba(255,255,255,0.1)"/><rect x="701" y="358" width="47" height="162" fill="rgba(255,255,255,0.07)"/><rect x="731" y="392" width="8" height="10" fill="rgba(255,255,255,0.1)"/><rect x="731" y="418" width="8" height="10" fill="rgba(255,255,255,0.22)"/><rect x="709" y="470" width="8" height="10" fill="rgba(255,255,255,0.1)"/><rect x="709" y="496" width="8" height="10" fill="rgba(255,255,255,0.22)"/><rect x="756" y="294" width="41" height="226" fill="rgba(255,255,255,0.07)"/><rect x="786" y="328" width="8" height="10" fill="rgba(255,255,255,0.22)"/><rect x="764" y="380" width="8" height="10" fill="rgba(255,255,255,0.1)"/><rect x="764" y="406" width="8" height="10" fill="rgba(255,255,255,0.22)"/><rect x="786" y="432" width="8" height="10" fill="rgba(255,255,255,0.1)"/><rect x="786" y="458" width="8" height="10" fill="rgba(255,255,255,0.22)"/><rect x="805" y="362" width="33" height="158" fill="rgba(255,255,255,0.07)"/><rect x="813" y="396" width="8" height="10" fill="rgba(255,255,255,0.22)"/><rect x="813" y="474" width="8" height="10" fill="rgba(255,255,255,0.1)"/><rect x="846" y="280" width="75" height="240" fill="rgba(255,255,255,0.07)"/><rect x="898" y="314" width="8" height="10" fill="rgba(255,255,255,0.1)"/><rect x="876" y="340" width="8" height="10" fill="rgba(255,255,255,0.22)"/><rect x="876" y="366" width="8" height="10" fill="rgba(255,255,255,0.1)"/><rect x="854" y="392" width="8" height="10" fill="rgba(255,255,255,0.22)"/><rect x="854" y="418" width="8" height="10" fill="rgba(255,255,255,0.1)"/><rect x="898" y="418" width="8" height="10" fill="rgba(255,255,255,0.22)"/><rect x="898" y="444" width="8" height="10" fill="rgba(255,255,255,0.1)"/><rect x="876" y="470" width="8" height="10" fill="rgba(255,255,255,0.22)"/><rect x="876" y="496" width="8" height="10" fill="rgba(255,255,255,0.1)"/><rect x="929" y="358" width="107" height="162" fill="rgba(255,255,255,0.07)"/><rect x="959" y="392" width="8" height="10" fill="rgba(255,255,255,0.1)"/><rect x="1003" y="392" width="8" height="10" fill="rgba(255,255,255,0.22)"/><rect x="959" y="418" width="8" height="10" fill="rgba(255,255,255,0.1)"/><rect x="1003" y="418" width="8" height="10" fill="rgba(255,255,255,0.22)"/><rect x="959" y="444" width="8" height="10" fill="rgba(255,255,255,0.1)"/><rect x="1003" y="444" width="8" height="10" fill="rgba(255,255,255,0.22)"/><rect x="959" y="470" width="8" height="10" fill="rgba(255,255,255,0.1)"/><rect x="1003" y="470" width="8" height="10" fill="rgba(255,255,255,0.22)"/><rect x="959" y="496" width="8" height="10" fill="rgba(255,255,255,0.1)"/><rect x="1003" y="496" width="8" height="10" fill="rgba(255,255,255,0.22)"/><rect x="1044" y="339" width="116" height="181" fill="rgba(255,255,255,0.07)"/><rect x="1074" y="373" width="8" height="10" fill="rgba(255,255,255,0.22)"/><rect x="1140" y="373" width="8" height="10" fill="rgba(255,255,255,0.1)"/><rect x="1074" y="399" width="8" height="10" fill="rgba(255,255,255,0.22)"/><rect x="1140" y="399" width="8" height="10" fill="rgba(255,255,255,0.1)"/><rect x="1074" y="425" width="8" height="10" fill="rgba(255,255,255,0.22)"/><rect x="1140" y="425" width="8" height="10" fill="rgba(255,255,255,0.1)"/><rect x="1074" y="451" width="8" height="10" fill="rgba(255,255,255,0.22)"/><rect x="1140" y="451" width="8" height="10" fill="rgba(255,255,255,0.1)"/><rect x="1074" y="477" width="8" height="10" fill="rgba(255,255,255,0.22)"/><rect x="1140" y="477" width="8" height="10" fill="rgba(255,255,255,0.1)"/><rect x="1168" y="240" width="35" height="280" fill="rgba(255,255,255,0.07)"/><rect x="1176" y="326" width="8" height="10" fill="rgba(255,255,255,0.1)"/><rect x="1176" y="378" width="8" height="10" fill="rgba(255,255,255,0.22)"/><rect x="1176" y="456" width="8" height="10" fill="rgba(255,255,255,0.1)"/>
  <rect y="518" width="1200" height="157" fill="rgba(13,18,48,0.55)"/>
  <text x="48" y="590" font-family="monospace" font-size="15" letter-spacing="4" fill="rgba(255,255,255,0.55)">INTERIOR — 02</text>
  <text x="48" y="632" font-family="Georgia, serif" font-size="40" fill="#ffffff">Monaco</text>
  <g transform="translate(1080,560) scale(0.28)" opacity="0.5">
    <circle cx="145" cy="145" r="145" fill="rgba(255,255,255,0.15)"/>
  </g>
  <text x="1152" y="60" text-anchor="end" font-family="monospace" font-size="13" letter-spacing="3" fill="rgba(255,255,255,0.4)">MRT · TOKENIZED ASSET</text>
</svg>