<svg xmlns="http://www.w3.org/2000/svg" width="1200" height="675" viewBox="0 0 1200 675">
  <defs>
    <linearGradient id="bg" x1="0" y1="0" x2="0" y2="1">
      <stop offset="0" stop-color="rgb(51,108,211)"/>
      <stop offset="1" stop-color="rgb(39,92,171)"/>
    </linearGradient>
    <pattern id="grid" width="30" height="30" patternUnits="userSpaceOnUse">
      <path d="M30 0H0V30" fill="none" stroke="rgba(231,233,237,0.10)" stroke-width="1"/>
    </pattern>
  </defs>
  <rect width="1200" height="675" fill="url(#bg)"/>
  <rect width="1200" height="675" fill="url(#grid)"/>
  <rect x="0" y="352" width="63" height="168" fill="rgba(255,255,255,0.07)"/><rect x="8" y="386" width="8" height="10" fill="rgba(255,255,255,0.22)"/><rect x="8" y="412" width="8" height="10" fill="rgba(255,255,255,0.1)"/><rect x="52" y="412" width="8" height="10" fill="rgba(255,255,255,0.22)"/><rect x="52" y="438" width="8" height="10" fill="rgba(255,255,255,0.1)"/><rect x="30" y="464" width="8" height="10" fill="rgba(255,255,255,0.22)"/><rect x="30" y="490" width="8" height="10" fill="rgba(255,255,255,0.1)"/><rect x="71" y="183" width="32" height="337" fill="rgba(255,255,255,0.07)"/><rect x="79" y="243" width="8" height="10" fill="rgba(255,255,255,0.1)"/><rect x="79" y="295" width="8" height="10" fill="rgba(255,255,255,0.22)"/><rect x="79" y="373" width="8" height="10" fill="rgba(255,255,255,0.1)"/><rect x="79" y="425" width="8" height="10" fill="rgba(255,255,255,0.22)"/><rect x="111" y="222" width="93" height="298" fill="rgba(255,255,255,0.07)"/><rect x="119" y="256" width="8" height="10" fill="rgba(255,255,255,0.22)"/><rect x="185" y="256" width="8" height="10" fill="rgba(255,255,255,0.1)"/><rect x="141" y="282" width="8" height="10" fill="rgba(255,255,255,0.22)"/><rect x="119" y="308" width="8" height="10" fill="rgba(255,255,255,0.1)"/><rect x="163" y="308" width="8" height="10" fill="rgba(255,255,255,0.22)"/><rect x="141" y="334" width="8" height="10" fill="rgba(255,255,255,0.1)"/><rect x="185" y="334" width="8" height="10" fill="rgba(255,255,255,0.22)"/><rect x="163" y="360" width="8" height="10" fill="rgba(255,255,255,0.1)"/><rect x="119" y="386" width="8" height="10" fill="rgba(255,255,255,0.22)"/><rect x="185" y="386" width="8" height="10" fill="rgba(255,255,255,0.1)"/><rect x="141" y="412" width="8" height="10" fill="rgba(255,255,255,0.22)"/><rect x="119" y="438" width="8" height="10" fill="rgba(255,255,255,0.1)"/><rect x="163" y="438" width="8" height="10" fill="rgba(255,255,255,0.22)"/><rect x="141" y="464" width="8" height="10" fill="rgba(255,255,255,0.1)"/><rect x="185" y="464" width="8" height="10" fill="rgba(255,255,255,0.22)"/><rect x="163" y="490" width="8" height="10" fill="rgba(255,255,255,0.1)"/><rect x="212" y="408" width="117" height="112" fill="rgba(255,255,255,0.07)"/><rect x="242" y="442" width="8" height="10" fill="rgba(255,255,255,0.1)"/><rect x="286" y="442" width="8" height="10" fill="rgba(255,255,255,0.22)"/><rect x="242" y="468" width="8" height="10" fill="rgba(255,255,255,0.1)"/><rect x="286" y="468" width="8" height="10" fill="rgba(255,255,255,0.22)"/><rect x="242" y="494" width="8" height="10" fill="rgba(255,255,255,0.1)"/><rect x="286" y="494" width="8" height="10" fill="rgba(255,255,255,0.22)"/><rect x="337" y="319" width="86" height="201" fill="rgba(255,255,255,0.07)"/><rect x="367" y="353" width="8" height="10" fill="rgba(255,255,255,0.22)"/><rect x="345" y="379" width="8" height="10" fill="rgba(255,255,255,0.1)"/><rect x="389" y="379" width="8" height="10" fill="rgba(255,255,255,0.22)"/><rect x="367" y="405" width="8" height="10" fill="rgba(255,255,255,0.1)"/><rect x="411" y="405" width="8" height="10" fill="rgba(255,255,255,0.22)"/><rect x="389" y="431" width="8" height="10" fill="rgba(255,255,255,0.1)"/><rect x="345" y="457" width="8" height="10" fill="rgba(255,255,255,0.22)"/><rect x="411" y="457" width="8" height="10" fill="rgba(255,255,255,0.1)"/><rect x="367" y="483" width="8" height="10" fill="rgba(255,255,255,0.22)"/><rect x="431" y="337" width="58" height="183" fill="rgba(255,255,255,0.07)"/><rect x="439" y="371" width="8" height="10" fill="rgba(255,255,255,0.22)"/><rect x="461" y="397" width="8" height="10" fill="rgba(255,255,255,0.1)"/><rect x="461" y="423" width="8" height="10" fill="rgba(255,255,255,0.22)"/><rect x="439" y="475" width="8" height="10" fill="rgba(255,255,255,0.1)"/><rect x="497" y="393" width="52" height="127" fill="rgba(255,255,255,0.07)"/><rect x="527" y="427" width="8" height="10" fill="rgba(255,255,255,0.1)"/><rect x="527" y="453" width="8" height="10" fill="rgba(255,255,255,0.22)"/><rect x="557" y="257" width="108" height="263" fill="rgba(255,255,255,0.07)"/><rect x="565" y="291" width="8" height="10" fill="rgba(255,255,255,0.22)"/><rect x="631" y="291" width="8" height="10" fill="rgba(255,255,255,0.1)"/><rect x="565" y="317" width="8" height="10" fill="rgba(255,255,255,0.22)"/><rect x="631" y="317" width="8" height="10" fill="rgba(255,255,255,0.1)"/><rect x="565" y="343" width="8" height="10" fill="rgba(255,255,255,0.22)"/><rect x="631" y="343" width="8" height="10" fill="rgba(255,255,255,0.1)"/><rect x="565" y="369" width="8" height="10" fill="rgba(255,255,255,0.22)"/><rect x="631" y="369" width="8" height="10" fill="rgba(255,255,255,0.1)"/><rect x="565" y="395" width="8" height="10" fill="rgba(255,255,255,0.22)"/><rect x="631" y="395" width="8" height="10" fill="rgba(255,255,255,0.1)"/><rect x="565" y="421" width="8" height="10" fill="rgba(255,255,255,0.22)"/><rect x="631" y="421" width="8" height="10" fill="rgba(255,255,255,0.1)"/><rect x="565" y="447" width="8" height="10" fill="rgba(255,255,255,0.22)"/><rect x="631" y="447" width="8" height="10" fill="rgba(255,255,255,0.1)"/><rect x="565" y="473" width="8" height="10" fill="rgba(255,255,255,0.22)"/><rect x="631" y="473" width="8" height="10" fill="rgba(255,255,255,0.1)"/><rect x="565" y="499" width="8" height="10" fill="rgba(255,255,255,0.22)"/><rect x="631" y="499" width="8" height="10" fill="rgba(255,255,255,0.1)"/><rect x="673" y="318" width="107" height="202" fill="rgba(255,255,255,0.07)"/><rect x="703" y="352" width="8" height="10" fill="rgba(255,255,255,0.1)"/><rect x="747" y="352" width="8" height="10" fill="rgba(255,255,255,0.22)"/><rect x="703" y="378" width="8" height="10" fill="rgba(255,255,255,0.1)"/><rect x="747" y="378" width="8" height="10" fill="rgba(255,255,255,0.22)"/><rect x="703" y="404" width="8" height="10" fill="rgba(255,255,255,0.1)"/><rect x="747" y="404" width="8" height="10" fill="rgba(255,255,255,0.22)"/><rect x="703" y="430" width="8" height="10" fill="rgba(255,255,255,0.1)"/><rect x="747" y="430" width="8" height="10" fill="rgba(255,255,255,0.22)"/><rect x="703" y="456" width="8" height="10" fill="rgba(255,255,255,0.1)"/><rect x="747" y="456" width="8" height="10" fill="rgba(255,255,255,0.22)"/><rect x="703" y="482" width="8" height="10" fill="rgba(255,255,255,0.1)"/><rect x="747" y="482" width="8" height="10" fill="rgba(255,255,255,0.22)"/><rect x="788" y="234" width="121" height="286" fill="rgba(255,255,255,0.07)"/><rect x="818" y="268" width="8" height="10" fill="rgba(255,255,255,0.22)"/><rect x="884" y="268" width="8" height="10" fill="rgba(255,255,255,0.1)"/><rect x="818" y="294" width="8" height="10" fill="rgba(255,255,255,0.22)"/><rect x="884" y="294" width="8" height="10" fill="rgba(255,255,255,0.1)"/><rect x="818" y="320" width="8" height="10" fill="rgba(255,255,255,0.22)"/><rect x="884" y="320" width="8" height="10" fill="rgba(255,255,255,0.1)"/><rect x="818" y="346" width="8" height="10" fill="rgba(255,255,255,0.22)"/><rect x="884" y="346" width="8" height="10" fill="rgba(255,255,255,0.1)"/><rect x="818" y="372" width="8" height="10" fill="rgba(255,255,255,0.22)"/><rect x="884" y="372" width="8" height="10" fill="rgba(255,255,255,0.1)"/><rect x="818" y="398" width="8" height="10" fill="rgba(255,255,255,0.22)"/><rect x="884" y="398" width="8" height="10" fill="rgba(255,255,255,0.1)"/><rect x="818" y="424" width="8" height="10" fill="rgba(255,255,255,0.22)"/><rect x="884" y="424" width="8" height="10" fill="rgba(255,255,255,0.1)"/><rect x="818" y="450" width="8" height="10" fill="rgba(255,255,255,0.22)"/><rect x="884" y="450" width="8" height="10" fill="rgba(255,255,255,0.1)"/><rect x="818" y="476" width="8" height="10" fill="rgba(255,255,255,0.22)"/><rect x="884" y="476" width="8" height="10" fill="rgba(255,255,255,0.1)"/><rect x="917" y="295" width="90" height="225" fill="rgba(255,255,255,0.07)"/><rect x="969" y="329" width="8" height="10" fill="rgba(255,255,255,0.1)"/><rect x="925" y="355" width="8" height="10" fill="rgba(255,255,255,0.22)"/><rect x="991" y="355" width="8" height="10" fill="rgba(255,255,255,0.1)"/><rect x="947" y="381" width="8" height="10" fill="rgba(255,255,255,0.22)"/><rect x="925" y="407" width="8" height="10" fill="rgba(255,255,255,0.1)"/><rect x="969" y="407" width="8" height="10" fill="rgba(255,255,255,0.22)"/><rect x="947" y="433" width="8" height="10" fill="rgba(255,255,255,0.1)"/><rect x="991" y="433" width="8" height="10" fill="rgba(255,255,255,0.22)"/><rect x="969" y="459" width="8" height="10" fill="rgba(255,255,255,0.1)"/><rect x="925" y="485" width="8" height="10" fill="rgba(255,255,255,0.22)"/><rect x="991" y="485" width="8" height="10" fill="rgba(255,255,255,0.1)"/><rect x="1015" y="205" width="120" height="315" fill="rgba(255,255,255,0.07)"/><rect x="1067" y="239" width="8" height="10" fill="rgba(255,255,255,0.1)"/><rect x="1111" y="239" width="8" height="10" fill="rgba(255,255,255,0.22)"/><rect x="1067" y="265" width="8" height="10" fill="rgba(255,255,255,0.1)"/><rect x="1111" y="265" width="8" height="10" fill="rgba(255,255,255,0.22)"/><rect x="1067" y="291" width="8" height="10" fill="rgba(255,255,255,0.1)"/><rect x="1111" y="291" width="8" height="10" fill="rgba(255,255,255,0.22)"/><rect x="1067" y="317" width="8" height="10" fill="rgba(255,255,255,0.1)"/><rect x="1111" y="317" width="8" height="10" fill="rgba(255,255,255,0.22)"/><rect x="1067" y="343" width="8" height="10" fill="rgba(255,255,255,0.1)"/><rect x="1111" y="343" width="8" height="10" fill="rgba(255,255,255,0.22)"/><rect x="1067" y="369" width="8" height="10" fill="rgba(255,255,255,0.1)"/><rect x="1111" y="369" width="8" height="10" fill="rgba(255,255,255,0.22)"/><rect x="1067" y="395" width="8" height="10" fill="rgba(255,255,255,0.1)"/><rect x="1111" y="395" width="8" height="10" fill="rgba(255,255,255,0.22)"/><rect x="1067" y="421" width="8" height="10" fill="rgba(255,255,255,0.1)"/><rect x="1111" y="421" width="8" height="10" fill="rgba(255,255,255,0.22)"/><rect x="1067" y="447" width="8" height="10" fill="rgba(255,255,255,0.1)"/><rect x="1111" y="447" width="8" height="10" fill="rgba(255,255,255,0.22)"/><rect x="1067" y="473" width="8" height="10" fill="rgba(255,255,255,0.1)"/><rect x="1111" y="473" width="8" height="10" fill="rgba(255,255,255,0.22)"/><rect x="1067" y="499" width="8" height="10" fill="rgba(255,255,255,0.1)"/><rect x="1111" y="499" width="8" height="10" fill="rgba(255,255,255,0.22)"/><rect x="1143" y="416" width="69" height="104" fill="rgba(255,255,255,0.07)"/><rect x="1151" y="450" width="8" height="10" fill="rgba(255,255,255,0.1)"/><rect x="1195" y="450" width="8" height="10" fill="rgba(255,255,255,0.22)"/><rect x="1195" y="476" width="8" height="10" fill="rgba(255,255,255,0.1)"/>
  <rect y="518" width="1200" height="157" fill="rgba(13,18,48,0.55)"/>
  <text x="48" y="590" font-family="monospace" font-size="15" letter-spacing="4" fill="rgba(255,255,255,0.55)">VIEW — 03</text>
  <text x="48" y="632" font-family="Georgia, serif" font-size="40" fill="#ffffff">Paris</text>
  <g transform="translate(1080,560) scale(0.28)" opacity="0.5">
    <circle cx="145" cy="145" r="145" fill="rgba(255,255,255,0.15)"/>
  </g>
  <text x="1152" y="60" text-anchor="end" font-family="monospace" font-size="13" letter-spacing="3" fill="rgba(255,255,255,0.4)">MRT · TOKENIZED ASSET</text>
</svg>