<svg xmlns="http://www.w3.org/2000/svg" width="1200" height="675" viewBox="0 0 1200 675">
  <defs>
    <linearGradient id="bg" x1="0" y1="0" x2="0" y2="1">
      <stop offset="0" stop-color="rgb(41,53,124)"/>
      <stop offset="1" stop-color="rgb(29,37,84)"/>
    </linearGradient>
    <pattern id="grid" width="30" height="30" patternUnits="userSpaceOnUse">
      <path d="M30 0H0V30" fill="none" stroke="rgba(231,233,237,0.10)" stroke-width="1"/>
    </pattern>
  </defs>
  <rect width="1200" height="675" fill="url(#bg)"/>
  <rect width="1200" height="675" fill="url(#grid)"/>
  <rect x="0" y="259" width="116" height="261" fill="rgba(255,255,255,0.07)"/><rect x="30" y="293" width="8" height="10" fill="rgba(255,255,255,0.22)"/><rect x="96" y="293" width="8" height="10" fill="rgba(255,255,255,0.1)"/><rect x="30" y="319" width="8" height="10" fill="rgba(255,255,255,0.22)"/><rect x="96" y="319" width="8" height="10" fill="rgba(255,255,255,0.1)"/><rect x="30" y="345" width="8" height="10" fill="rgba(255,255,255,0.22)"/><rect x="96" y="345" width="8" height="10" fill="rgba(255,255,255,0.1)"/><rect x="30" y="371" width="8" height="10" fill="rgba(255,255,255,0.22)"/><rect x="96" y="371" width="8" height="10" fill="rgba(255,255,255,0.1)"/><rect x="30" y="397" width="8" height="10" fill="rgba(255,255,255,0.22)"/><rect x="96" y="397" width="8" height="10" fill="rgba(255,255,255,0.1)"/><rect x="30" y="423" width="8" height="10" fill="rgba(255,255,255,0.22)"/><rect x="96" y="423" width="8" height="10" fill="rgba(255,255,255,0.1)"/><rect x="30" y="449" width="8" height="10" fill="rgba(255,255,255,0.22)"/><rect x="96" y="449" width="8" height="10" fill="rgba(255,255,255,0.1)"/><rect x="30" y="475" width="8" height="10" fill="rgba(255,255,255,0.22)"/><rect x="96" y="475" width="8" height="10" fill="rgba(255,255,255,0.1)"/><rect x="124" y="325" width="50" height="195" fill="rgba(255,255,255,0.07)"/><rect x="132" y="385" width="8" height="10" fill="rgba(255,255,255,0.1)"/><rect x="132" y="411" width="8" height="10" fill="rgba(255,255,255,0.22)"/><rect x="154" y="437" width="8" height="10" fill="rgba(255,255,255,0.1)"/><rect x="154" y="463" width="8" height="10" fill="rgba(255,255,255,0.22)"/><rect x="182" y="287" width="118" height="233" fill="rgba(255,255,255,0.07)"/><rect x="190" y="321" width="8" height="10" fill="rgba(255,255,255,0.22)"/><rect x="256" y="321" width="8" height="10" fill="rgba(255,255,255,0.1)"/><rect x="190" y="347" width="8" height="10" fill="rgba(255,255,255,0.22)"/><rect x="256" y="347" width="8" height="10" fill="rgba(255,255,255,0.1)"/><rect x="190" y="373" width="8" height="10" fill="rgba(255,255,255,0.22)"/><rect x="256" y="373" width="8" height="10" fill="rgba(255,255,255,0.1)"/><rect x="190" y="399" width="8" height="10" fill="rgba(255,255,255,0.22)"/><rect x="256" y="399" width="8" height="10" fill="rgba(255,255,255,0.1)"/><rect x="190" y="425" width="8" height="10" fill="rgba(255,255,255,0.22)"/><rect x="256" y="425" width="8" height="10" fill="rgba(255,255,255,0.1)"/><rect x="190" y="451" width="8" height="10" fill="rgba(255,255,255,0.22)"/><rect x="256" y="451" width="8" height="10" fill="rgba(255,255,255,0.1)"/><rect x="190" y="477" width="8" height="10" fill="rgba(255,255,255,0.22)"/><rect x="256" y="477" width="8" height="10" fill="rgba(255,255,255,0.1)"/><rect x="308" y="378" width="47" height="142" fill="rgba(255,255,255,0.07)"/><rect x="338" y="412" width="8" height="10" fill="rgba(255,255,255,0.1)"/><rect x="338" y="438" width="8" height="10" fill="rgba(255,255,255,0.22)"/><rect x="316" y="490" width="8" height="10" fill="rgba(255,255,255,0.1)"/><rect x="363" y="328" width="87" height="192" fill="rgba(255,255,255,0.07)"/><rect x="393" y="362" width="8" height="10" fill="rgba(255,255,255,0.1)"/><rect x="437" y="362" width="8" height="10" fill="rgba(255,255,255,0.22)"/><rect x="415" y="388" width="8" height="10" fill="rgba(255,255,255,0.1)"/><rect x="371" y="414" width="8" height="10" fill="rgba(255,255,255,0.22)"/><rect x="437" y="414" width="8" height="10" fill="rgba(255,255,255,0.1)"/><rect x="393" y="440" width="8" height="10" fill="rgba(255,255,255,0.22)"/><rect x="371" y="466" width="8" height="10" fill="rgba(255,255,255,0.1)"/><rect x="415" y="466" width="8" height="10" fill="rgba(255,255,255,0.22)"/><rect x="393" y="492" width="8" height="10" fill="rgba(255,255,255,0.1)"/><rect x="437" y="492" width="8" height="10" fill="rgba(255,255,255,0.22)"/><rect x="458" y="366" width="119" height="154" fill="rgba(255,255,255,0.07)"/><rect x="466" y="400" width="8" height="10" fill="rgba(255,255,255,0.1)"/><rect x="510" y="400" width="8" height="10" fill="rgba(255,255,255,0.22)"/><rect x="466" y="426" width="8" height="10" fill="rgba(255,255,255,0.1)"/><rect x="510" y="426" width="8" height="10" fill="rgba(255,255,255,0.22)"/><rect x="466" y="452" width="8" height="10" fill="rgba(255,255,255,0.1)"/><rect x="510" y="452" width="8" height="10" fill="rgba(255,255,255,0.22)"/><rect x="466" y="478" width="8" height="10" fill="rgba(255,255,255,0.1)"/><rect x="510" y="478" width="8" height="10" fill="rgba(255,255,255,0.22)"/><rect x="585" y="412" width="63" height="108" fill="rgba(255,255,255,0.07)"/><rect x="593" y="446" width="8" height="10" fill="rgba(255,255,255,0.22)"/><rect x="593" y="472" width="8" height="10" fill="rgba(255,255,255,0.1)"/><rect x="637" y="472" width="8" height="10" fill="rgba(255,255,255,0.22)"/><rect x="637" y="498" width="8" height="10" fill="rgba(255,255,255,0.1)"/><rect x="656" y="185" width="80" height="335" fill="rgba(255,255,255,0.07)"/><rect x="708" y="219" width="8" height="10" fill="rgba(255,255,255,0.1)"/><rect x="686" y="245" width="8" height="10" fill="rgba(255,255,255,0.22)"/><rect x="686" y="271" width="8" height="10" fill="rgba(255,255,255,0.1)"/><rect x="664" y="297" width="8" height="10" fill="rgba(255,255,255,0.22)"/><rect x="664" y="323" width="8" height="10" fill="rgba(255,255,255,0.1)"/><rect x="708" y="323" width="8" height="10" fill="rgba(255,255,255,0.22)"/><rect x="708" y="349" width="8" height="10" fill="rgba(255,255,255,0.1)"/><rect x="686" y="375" width="8" height="10" fill="rgba(255,255,255,0.22)"/><rect x="686" y="401" width="8" height="10" fill="rgba(255,255,255,0.1)"/><rect x="664" y="427" width="8" height="10" fill="rgba(255,255,255,0.22)"/><rect x="664" y="453" width="8" height="10" fill="rgba(255,255,255,0.1)"/><rect x="708" y="453" width="8" height="10" fill="rgba(255,255,255,0.22)"/><rect x="708" y="479" width="8" height="10" fill="rgba(255,255,255,0.1)"/><rect x="744" y="370" width="115" height="150" fill="rgba(255,255,255,0.07)"/><rect x="796" y="404" width="8" height="10" fill="rgba(255,255,255,0.1)"/><rect x="840" y="404" width="8" height="10" fill="rgba(255,255,255,0.22)"/><rect x="796" y="430" width="8" height="10" fill="rgba(255,255,255,0.1)"/><rect x="840" y="430" width="8" height="10" fill="rgba(255,255,255,0.22)"/><rect x="796" y="456" width="8" height="10" fill="rgba(255,255,255,0.1)"/><rect x="840" y="456" width="8" height="10" fill="rgba(255,255,255,0.22)"/><rect x="796" y="482" width="8" height="10" fill="rgba(255,255,255,0.1)"/><rect x="840" y="482" width="8" height="10" fill="rgba(255,255,255,0.22)"/><rect x="867" y="376" width="119" height="144" fill="rgba(255,255,255,0.07)"/><rect x="875" y="410" width="8" height="10" fill="rgba(255,255,255,0.1)"/><rect x="919" y="410" width="8" height="10" fill="rgba(255,255,255,0.22)"/><rect x="875" y="436" width="8" height="10" fill="rgba(255,255,255,0.1)"/><rect x="919" y="436" width="8" height="10" fill="rgba(255,255,255,0.22)"/><rect x="875" y="462" width="8" height="10" fill="rgba(255,255,255,0.1)"/><rect x="919" y="462" width="8" height="10" fill="rgba(255,255,255,0.22)"/><rect x="875" y="488" width="8" height="10" fill="rgba(255,255,255,0.1)"/><rect x="919" y="488" width="8" height="10" fill="rgba(255,255,255,0.22)"/><rect x="994" y="402" width="63" height="118" fill="rgba(255,255,255,0.07)"/><rect x="1002" y="436" width="8" height="10" fill="rgba(255,255,255,0.22)"/><rect x="1002" y="462" width="8" height="10" fill="rgba(255,255,255,0.1)"/><rect x="1046" y="462" width="8" height="10" fill="rgba(255,255,255,0.22)"/><rect x="1046" y="488" width="8" height="10" fill="rgba(255,255,255,0.1)"/><rect x="1065" y="335" width="80" height="185" fill="rgba(255,255,255,0.07)"/><rect x="1117" y="369" width="8" height="10" fill="rgba(255,255,255,0.1)"/><rect x="1095" y="395" width="8" height="10" fill="rgba(255,255,255,0.22)"/><rect x="1095" y="421" width="8" height="10" fill="rgba(255,255,255,0.1)"/><rect x="1073" y="447" width="8" height="10" fill="rgba(255,255,255,0.22)"/><rect x="1073" y="473" width="8" height="10" fill="rgba(255,255,255,0.1)"/><rect x="1117" y="473" width="8" height="10" fill="rgba(255,255,255,0.22)"/><rect x="1117" y="499" width="8" height="10" fill="rgba(255,255,255,0.1)"/><rect x="1153" y="255" width="100" height="265" fill="rgba(255,255,255,0.07)"/><rect x="1205" y="289" width="8" height="10" fill="rgba(255,255,255,0.1)"/><rect x="1161" y="315" width="8" height="10" fill="rgba(255,255,255,0.22)"/><rect x="1227" y="315" width="8" height="10" fill="rgba(255,255,255,0.1)"/><rect x="1183" y="341" width="8" height="10" fill="rgba(255,255,255,0.22)"/><rect x="1161" y="367" width="8" height="10" fill="rgba(255,255,255,0.1)"/><rect x="1205" y="367" width="8" height="10" fill="rgba(255,255,255,0.22)"/><rect x="1183" y="393" width="8" height="10" fill="rgba(255,255,255,0.1)"/><rect x="1227" y="393" width="8" height="10" fill="rgba(255,255,255,0.22)"/><rect x="1205" y="419" width="8" height="10" fill="rgba(255,255,255,0.1)"/><rect x="1161" y="445" width="8" height="10" fill="rgba(255,255,255,0.22)"/><rect x="1227" y="445" width="8" height="10" fill="rgba(255,255,255,0.1)"/><rect x="1183" y="471" width="8" height="10" fill="rgba(255,255,255,0.22)"/><rect x="1161" y="497" width="8" height="10" fill="rgba(255,255,255,0.1)"/><rect x="1205" y="497" width="8" height="10" fill="rgba(255,255,255,0.22)"/>
  <rect y="518" width="1200" height="157" fill="rgba(13,18,48,0.55)"/>
  <text x="48" y="590" font-family="monospace" font-size="15" letter-spacing="4" fill="rgba(255,255,255,0.55)">INTERIOR — 02</text>
  <text x="48" y="632" font-family="Georgia, serif" font-size="40" fill="#ffffff">Paris</text>
  <g transform="translate(1080,560) scale(0.28)" opacity="0.5">
    <circle cx="145" cy="145" r="145" fill="rgba(255,255,255,0.15)"/>
  </g>
  <text x="1152" y="60" text-anchor="end" font-family="monospace" font-size="13" letter-spacing="3" fill="rgba(255,255,255,0.4)">MRT · TOKENIZED ASSET</text>
</svg>