<svg xmlns="http://www.w3.org/2000/svg" width="1200" height="675" viewBox="0 0 1200 675">
  <defs>
    <linearGradient id="bg" x1="0" y1="0" x2="0" y2="1">
      <stop offset="0" stop-color="rgb(36,64,150)"/>
      <stop offset="1" stop-color="rgb(24,48,110)"/>
    </linearGradient>
    <pattern id="grid" width="30" height="30" patternUnits="userSpaceOnUse">
      <path d="M30 0H0V30" fill="none" stroke="rgba(231,233,237,0.10)" stroke-width="1"/>
    </pattern>
  </defs>
  <rect width="1200" height="675" fill="url(#bg)"/>
  <rect width="1200" height="675" fill="url(#grid)"/>
  <rect x="0" y="226" width="79" height="294" fill="rgba(255,255,255,0.07)"/><rect x="8" y="260" width="8" height="10" fill="rgba(255,255,255,0.1)"/><rect x="52" y="260" width="8" height="10" fill="rgba(255,255,255,0.22)"/><rect x="52" y="286" width="8" height="10" fill="rgba(255,255,255,0.1)"/><rect x="30" y="312" width="8" height="10" fill="rgba(255,255,255,0.22)"/><rect x="30" y="338" width="8" height="10" fill="rgba(255,255,255,0.1)"/><rect x="8" y="364" width="8" height="10" fill="rgba(255,255,255,0.22)"/><rect x="8" y="390" width="8" height="10" fill="rgba(255,255,255,0.1)"/><rect x="52" y="390" width="8" height="10" fill="rgba(255,255,255,0.22)"/><rect x="52" y="416" width="8" height="10" fill="rgba(255,255,255,0.1)"/><rect x="30" y="442" width="8" height="10" fill="rgba(255,255,255,0.22)"/><rect x="30" y="468" width="8" height="10" fill="rgba(255,255,255,0.1)"/><rect x="8" y="494" width="8" height="10" fill="rgba(255,255,255,0.22)"/><rect x="87" y="322" width="33" height="198" fill="rgba(255,255,255,0.07)"/><rect x="95" y="356" width="8" height="10" fill="rgba(255,255,255,0.22)"/><rect x="95" y="434" width="8" height="10" fill="rgba(255,255,255,0.1)"/><rect x="95" y="486" width="8" height="10" fill="rgba(255,255,255,0.22)"/><rect x="128" y="266" width="119" height="254" fill="rgba(255,255,255,0.07)"/><rect x="136" y="300" width="8" height="10" fill="rgba(255,255,255,0.1)"/><rect x="180" y="300" width="8" height="10" fill="rgba(255,255,255,0.22)"/><rect x="136" y="326" width="8" height="10" fill="rgba(255,255,255,0.1)"/><rect x="180" y="326" width="8" height="10" fill="rgba(255,255,255,0.22)"/><rect x="136" y="352" width="8" height="10" fill="rgba(255,255,255,0.1)"/><rect x="180" y="352" width="8" height="10" fill="rgba(255,255,255,0.22)"/><rect x="136" y="378" width="8" height="10" fill="rgba(255,255,255,0.1)"/><rect x="180" y="378" width="8" height="10" fill="rgba(255,255,255,0.22)"/><rect x="136" y="404" width="8" height="10" fill="rgba(255,255,255,0.1)"/><rect x="180" y="404" width="8" height="10" fill="rgba(255,255,255,0.22)"/><rect x="136" y="430" width="8" height="10" fill="rgba(255,255,255,0.1)"/><rect x="180" y="430" width="8" height="10" fill="rgba(255,255,255,0.22)"/><rect x="136" y="456" width="8" height="10" fill="rgba(255,255,255,0.1)"/><rect x="180" y="456" width="8" height="10" fill="rgba(255,255,255,0.22)"/><rect x="136" y="482" width="8" height="10" fill="rgba(255,255,255,0.1)"/><rect x="180" y="482" width="8" height="10" fill="rgba(255,255,255,0.22)"/><rect x="255" y="272" width="53" height="248" fill="rgba(255,255,255,0.07)"/><rect x="263" y="306" width="8" height="10" fill="rgba(255,255,255,0.22)"/><rect x="285" y="332" width="8" height="10" fill="rgba(255,255,255,0.1)"/><rect x="285" y="358" width="8" height="10" fill="rgba(255,255,255,0.22)"/><rect x="263" y="410" width="8" height="10" fill="rgba(255,255,255,0.1)"/><rect x="263" y="436" width="8" height="10" fill="rgba(255,255,255,0.22)"/><rect x="285" y="462" width="8" height="10" fill="rgba(255,255,255,0.1)"/><rect x="285" y="488" width="8" height="10" fill="rgba(255,255,255,0.22)"/><rect x="316" y="406" width="89" height="114" fill="rgba(255,255,255,0.07)"/><rect x="324" y="440" width="8" height="10" fill="rgba(255,255,255,0.1)"/><rect x="368" y="440" width="8" height="10" fill="rgba(255,255,255,0.22)"/><rect x="346" y="466" width="8" height="10" fill="rgba(255,255,255,0.1)"/><rect x="390" y="466" width="8" height="10" fill="rgba(255,255,255,0.22)"/><rect x="368" y="492" width="8" height="10" fill="rgba(255,255,255,0.1)"/><rect x="413" y="328" width="67" height="192" fill="rgba(255,255,255,0.07)"/><rect x="443" y="362" width="8" height="10" fill="rgba(255,255,255,0.1)"/><rect x="421" y="388" width="8" height="10" fill="rgba(255,255,255,0.22)"/><rect x="421" y="414" width="8" height="10" fill="rgba(255,255,255,0.1)"/><rect x="465" y="414" width="8" height="10" fill="rgba(255,255,255,0.22)"/><rect x="465" y="440" width="8" height="10" fill="rgba(255,255,255,0.1)"/><rect x="443" y="466" width="8" height="10" fill="rgba(255,255,255,0.22)"/><rect x="443" y="492" width="8" height="10" fill="rgba(255,255,255,0.1)"/><rect x="488" y="188" width="117" height="332" fill="rgba(255,255,255,0.07)"/><rect x="518" y="222" width="8" height="10" fill="rgba(255,255,255,0.1)"/><rect x="562" y="222" width="8" height="10" fill="rgba(255,255,255,0.22)"/><rect x="518" y="248" width="8" height="10" fill="rgba(255,255,255,0.1)"/><rect x="562" y="248" width="8" height="10" fill="rgba(255,255,255,0.22)"/><rect x="518" y="274" width="8" height="10" fill="rgba(255,255,255,0.1)"/><rect x="562" y="274" width="8" height="10" fill="rgba(255,255,255,0.22)"/><rect x="518" y="300" width="8" height="10" fill="rgba(255,255,255,0.1)"/><rect x="562" y="300" width="8" height="10" fill="rgba(255,255,255,0.22)"/><rect x="518" y="326" width="8" height="10" fill="rgba(255,255,255,0.1)"/><rect x="562" y="326" width="8" height="10" fill="rgba(255,255,255,0.22)"/><rect x="518" y="352" width="8" height="10" fill="rgba(255,255,255,0.1)"/><rect x="562" y="352" width="8" height="10" fill="rgba(255,255,255,0.22)"/><rect x="518" y="378" width="8" height="10" fill="rgba(255,255,255,0.1)"/><rect x="562" y="378" width="8" height="10" fill="rgba(255,255,255,0.22)"/><rect x="518" y="404" width="8" height="10" fill="rgba(255,255,255,0.1)"/><rect x="562" y="404" width="8" height="10" fill="rgba(255,255,255,0.22)"/><rect x="518" y="430" width="8" height="10" fill="rgba(255,255,255,0.1)"/><rect x="562" y="430" width="8" height="10" fill="rgba(255,255,255,0.22)"/><rect x="518" y="456" width="8" height="10" fill="rgba(255,255,255,0.1)"/><rect x="562" y="456" width="8" height="10" fill="rgba(255,255,255,0.22)"/><rect x="518" y="482" width="8" height="10" fill="rgba(255,255,255,0.1)"/><rect x="562" y="482" width="8" height="10" fill="rgba(255,255,255,0.22)"/><rect x="613" y="379" width="66" height="141" fill="rgba(255,255,255,0.07)"/><rect x="643" y="413" width="8" height="10" fill="rgba(255,255,255,0.22)"/><rect x="643" y="439" width="8" height="10" fill="rgba(255,255,255,0.1)"/><rect x="621" y="465" width="8" height="10" fill="rgba(255,255,255,0.22)"/><rect x="621" y="491" width="8" height="10" fill="rgba(255,255,255,0.1)"/><rect x="665" y="491" width="8" height="10" fill="rgba(255,255,255,0.22)"/><rect x="687" y="201" width="104" height="319" fill="rgba(255,255,255,0.07)"/><rect x="695" y="235" width="8" height="10" fill="rgba(255,255,255,0.1)"/><rect x="739" y="235" width="8" height="10" fill="rgba(255,255,255,0.22)"/><rect x="717" y="261" width="8" height="10" fill="rgba(255,255,255,0.1)"/><rect x="761" y="261" width="8" height="10" fill="rgba(255,255,255,0.22)"/><rect x="739" y="287" width="8" height="10" fill="rgba(255,255,255,0.1)"/><rect x="695" y="313" width="8" height="10" fill="rgba(255,255,255,0.22)"/><rect x="761" y="313" width="8" height="10" fill="rgba(255,255,255,0.1)"/><rect x="717" y="339" width="8" height="10" fill="rgba(255,255,255,0.22)"/><rect x="695" y="365" width="8" height="10" fill="rgba(255,255,255,0.1)"/><rect x="739" y="365" width="8" height="10" fill="rgba(255,255,255,0.22)"/><rect x="717" y="391" width="8" height="10" fill="rgba(255,255,255,0.1)"/><rect x="761" y="391" width="8" height="10" fill="rgba(255,255,255,0.22)"/><rect x="739" y="417" width="8" height="10" fill="rgba(255,255,255,0.1)"/><rect x="695" y="443" width="8" height="10" fill="rgba(255,255,255,0.22)"/><rect x="761" y="443" width="8" height="10" fill="rgba(255,255,255,0.1)"/><rect x="717" y="469" width="8" height="10" fill="rgba(255,255,255,0.22)"/><rect x="695" y="495" width="8" height="10" fill="rgba(255,255,255,0.1)"/><rect x="739" y="495" width="8" height="10" fill="rgba(255,255,255,0.22)"/><rect x="799" y="259" width="36" height="261" fill="rgba(255,255,255,0.07)"/><rect x="807" y="319" width="8" height="10" fill="rgba(255,255,255,0.22)"/><rect x="807" y="397" width="8" height="10" fill="rgba(255,255,255,0.1)"/><rect x="807" y="449" width="8" height="10" fill="rgba(255,255,255,0.22)"/><rect x="843" y="269" width="106" height="251" fill="rgba(255,255,255,0.07)"/><rect x="873" y="303" width="8" height="10" fill="rgba(255,255,255,0.22)"/><rect x="851" y="329" width="8" height="10" fill="rgba(255,255,255,0.1)"/><rect x="895" y="329" width="8" height="10" fill="rgba(255,255,255,0.22)"/><rect x="873" y="355" width="8" height="10" fill="rgba(255,255,255,0.1)"/><rect x="917" y="355" width="8" height="10" fill="rgba(255,255,255,0.22)"/><rect x="895" y="381" width="8" height="10" fill="rgba(255,255,255,0.1)"/><rect x="851" y="407" width="8" height="10" fill="rgba(255,255,255,0.22)"/><rect x="917" y="407" width="8" height="10" fill="rgba(255,255,255,0.1)"/><rect x="873" y="433" width="8" height="10" fill="rgba(255,255,255,0.22)"/><rect x="851" y="459" width="8" height="10" fill="rgba(255,255,255,0.1)"/><rect x="895" y="459" width="8" height="10" fill="rgba(255,255,255,0.22)"/><rect x="873" y="485" width="8" height="10" fill="rgba(255,255,255,0.1)"/><rect x="917" y="485" width="8" height="10" fill="rgba(255,255,255,0.22)"/><rect x="957" y="231" width="104" height="289" fill="rgba(255,255,255,0.07)"/><rect x="965" y="265" width="8" height="10" fill="rgba(255,255,255,0.1)"/><rect x="1009" y="265" width="8" height="10" fill="rgba(255,255,255,0.22)"/><rect x="987" y="291" width="8" height="10" fill="rgba(255,255,255,0.1)"/><rect x="1031" y="291" width="8" height="10" fill="rgba(255,255,255,0.22)"/><rect x="1009" y="317" width="8" height="10" fill="rgba(255,255,255,0.1)"/><rect x="965" y="343" width="8" height="10" fill="rgba(255,255,255,0.22)"/><rect x="1031" y="343" width="8" height="10" fill="rgba(255,255,255,0.1)"/><rect x="987" y="369" width="8" height="10" fill="rgba(255,255,255,0.22)"/><rect x="965" y="395" width="8" height="10" fill="rgba(255,255,255,0.1)"/><rect x="1009" y="395" width="8" height="10" fill="rgba(255,255,255,0.22)"/><rect x="987" y="421" width="8" height="10" fill="rgba(255,255,255,0.1)"/><rect x="1031" y="421" width="8" height="10" fill="rgba(255,255,255,0.22)"/><rect x="1009" y="447" width="8" height="10" fill="rgba(255,255,255,0.1)"/><rect x="965" y="473" width="8" height="10" fill="rgba(255,255,255,0.22)"/><rect x="1031" y="473" width="8" height="10" fill="rgba(255,255,255,0.1)"/><rect x="987" y="499" width="8" height="10" fill="rgba(255,255,255,0.22)"/><rect x="1069" y="417" width="38" height="103" fill="rgba(255,255,255,0.07)"/><rect x="1077" y="451" width="8" height="10" fill="rgba(255,255,255,0.22)"/><rect x="1115" y="289" width="36" height="231" fill="rgba(255,255,255,0.07)"/><rect x="1123" y="349" width="8" height="10" fill="rgba(255,255,255,0.22)"/><rect x="1123" y="427" width="8" height="10" fill="rgba(255,255,255,0.1)"/><rect x="1123" y="479" width="8" height="10" fill="rgba(255,255,255,0.22)"/><rect x="1159" y="236" width="99" height="284" fill="rgba(255,255,255,0.07)"/><rect x="1167" y="270" width="8" height="10" fill="rgba(255,255,255,0.1)"/><rect x="1211" y="270" width="8" height="10" fill="rgba(255,255,255,0.22)"/><rect x="1189" y="296" width="8" height="10" fill="rgba(255,255,255,0.1)"/><rect x="1233" y="296" width="8" height="10" fill="rgba(255,255,255,0.22)"/><rect x="1211" y="322" width="8" height="10" fill="rgba(255,255,255,0.1)"/><rect x="1167" y="348" width="8" height="10" fill="rgba(255,255,255,0.22)"/><rect x="1233" y="348" width="8" height="10" fill="rgba(255,255,255,0.1)"/><rect x="1189" y="374" width="8" height="10" fill="rgba(255,255,255,0.22)"/><rect x="1167" y="400" width="8" height="10" fill="rgba(255,255,255,0.1)"/><rect x="1211" y="400" width="8" height="10" fill="rgba(255,255,255,0.22)"/><rect x="1189" y="426" width="8" height="10" fill="rgba(255,255,255,0.1)"/><rect x="1233" y="426" width="8" height="10" fill="rgba(255,255,255,0.22)"/><rect x="1211" y="452" width="8" height="10" fill="rgba(255,255,255,0.1)"/><rect x="1167" y="478" width="8" height="10" fill="rgba(255,255,255,0.22)"/><rect x="1233" y="478" width="8" height="10" fill="rgba(255,255,255,0.1)"/>
  <rect y="518" width="1200" height="157" fill="rgba(13,18,48,0.55)"/>
  <text x="48" y="590" font-family="monospace" font-size="15" letter-spacing="4" fill="rgba(255,255,255,0.55)">EXTERIOR — 01</text>
  <text x="48" y="632" font-family="Georgia, serif" font-size="40" fill="#ffffff">Paris</text>
  <g transform="translate(1080,560) scale(0.28)" opacity="0.5">
    <circle cx="145" cy="145" r="145" fill="rgba(255,255,255,0.15)"/>
  </g>
  <text x="1152" y="60" text-anchor="end" font-family="monospace" font-size="13" letter-spacing="3" fill="rgba(255,255,255,0.4)">MRT · TOKENIZED ASSET</text>
</svg>