<svg xmlns="http://www.w3.org/2000/svg" width="1200" height="675" viewBox="0 0 1200 675">
  <defs>
    <linearGradient id="bg" x1="0" y1="0" x2="0" y2="1">
      <stop offset="0" stop-color="rgb(51,108,211)"/>
      <stop offset="1" stop-color="rgb(39,92,171)"/>
    </linearGradient>
    <pattern id="grid" width="30" height="30" patternUnits="userSpaceOnUse">
      <path d="M30 0H0V30" fill="none" stroke="rgba(231,233,237,0.10)" stroke-width="1"/>
    </pattern>
  </defs>
  <rect width="1200" height="675" fill="url(#bg)"/>
  <rect width="1200" height="675" fill="url(#grid)"/>
  <rect x="0" y="204" width="121" height="316" fill="rgba(255,255,255,0.07)"/><rect x="30" y="238" width="8" height="10" fill="rgba(255,255,255,0.22)"/><rect x="96" y="238" width="8" height="10" fill="rgba(255,255,255,0.1)"/><rect x="30" y="264" width="8" height="10" fill="rgba(255,255,255,0.22)"/><rect x="96" y="264" width="8" height="10" fill="rgba(255,255,255,0.1)"/><rect x="30" y="290" width="8" height="10" fill="rgba(255,255,255,0.22)"/><rect x="96" y="290" width="8" height="10" fill="rgba(255,255,255,0.1)"/><rect x="30" y="316" width="8" height="10" fill="rgba(255,255,255,0.22)"/><rect x="96" y="316" width="8" height="10" fill="rgba(255,255,255,0.1)"/><rect x="30" y="342" width="8" height="10" fill="rgba(255,255,255,0.22)"/><rect x="96" y="342" width="8" height="10" fill="rgba(255,255,255,0.1)"/><rect x="30" y="368" width="8" height="10" fill="rgba(255,255,255,0.22)"/><rect x="96" y="368" width="8" height="10" fill="rgba(255,255,255,0.1)"/><rect x="30" y="394" width="8" height="10" fill="rgba(255,255,255,0.22)"/><rect x="96" y="394" width="8" height="10" fill="rgba(255,255,255,0.1)"/><rect x="30" y="420" width="8" height="10" fill="rgba(255,255,255,0.22)"/><rect x="96" y="420" width="8" height="10" fill="rgba(255,255,255,0.1)"/><rect x="30" y="446" width="8" height="10" fill="rgba(255,255,255,0.22)"/><rect x="96" y="446" width="8" height="10" fill="rgba(255,255,255,0.1)"/><rect x="30" y="472" width="8" height="10" fill="rgba(255,255,255,0.22)"/><rect x="96" y="472" width="8" height="10" fill="rgba(255,255,255,0.1)"/><rect x="30" y="498" width="8" height="10" fill="rgba(255,255,255,0.22)"/><rect x="96" y="498" width="8" height="10" fill="rgba(255,255,255,0.1)"/><rect x="129" y="235" width="70" height="285" fill="rgba(255,255,255,0.07)"/><rect x="181" y="269" width="8" height="10" fill="rgba(255,255,255,0.1)"/><rect x="159" y="295" width="8" height="10" fill="rgba(255,255,255,0.22)"/><rect x="159" y="321" width="8" height="10" fill="rgba(255,255,255,0.1)"/><rect x="137" y="347" width="8" height="10" fill="rgba(255,255,255,0.22)"/><rect x="137" y="373" width="8" height="10" fill="rgba(255,255,255,0.1)"/><rect x="181" y="373" width="8" height="10" fill="rgba(255,255,255,0.22)"/><rect x="181" y="399" width="8" height="10" fill="rgba(255,255,255,0.1)"/><rect x="159" y="425" width="8" height="10" fill="rgba(255,255,255,0.22)"/><rect x="159" y="451" width="8" height="10" fill="rgba(255,255,255,0.1)"/><rect x="137" y="477" width="8" height="10" fill="rgba(255,255,255,0.22)"/><rect x="207" y="182" width="93" height="338" fill="rgba(255,255,255,0.07)"/><rect x="215" y="216" width="8" height="10" fill="rgba(255,255,255,0.22)"/><rect x="281" y="216" width="8" height="10" fill="rgba(255,255,255,0.1)"/><rect x="237" y="242" width="8" height="10" fill="rgba(255,255,255,0.22)"/><rect x="215" y="268" width="8" height="10" fill="rgba(255,255,255,0.1)"/><rect x="259" y="268" width="8" height="10" fill="rgba(255,255,255,0.22)"/><rect x="237" y="294" width="8" height="10" fill="rgba(255,255,255,0.1)"/><rect x="281" y="294" width="8" height="10" fill="rgba(255,255,255,0.22)"/><rect x="259" y="320" width="8" height="10" fill="rgba(255,255,255,0.1)"/><rect x="215" y="346" width="8" height="10" fill="rgba(255,255,255,0.22)"/><rect x="281" y="346" width="8" height="10" fill="rgba(255,255,255,0.1)"/><rect x="237" y="372" width="8" height="10" fill="rgba(255,255,255,0.22)"/><rect x="215" y="398" width="8" height="10" fill="rgba(255,255,255,0.1)"/><rect x="259" y="398" width="8" height="10" fill="rgba(255,255,255,0.22)"/><rect x="237" y="424" width="8" height="10" fill="rgba(255,255,255,0.1)"/><rect x="281" y="424" width="8" height="10" fill="rgba(255,255,255,0.22)"/><rect x="259" y="450" width="8" height="10" fill="rgba(255,255,255,0.1)"/><rect x="215" y="476" width="8" height="10" fill="rgba(255,255,255,0.22)"/><rect x="281" y="476" width="8" height="10" fill="rgba(255,255,255,0.1)"/><rect x="308" y="240" width="55" height="280" fill="rgba(255,255,255,0.07)"/><rect x="316" y="300" width="8" height="10" fill="rgba(255,255,255,0.1)"/><rect x="316" y="326" width="8" height="10" fill="rgba(255,255,255,0.22)"/><rect x="338" y="352" width="8" height="10" fill="rgba(255,255,255,0.1)"/><rect x="338" y="378" width="8" height="10" fill="rgba(255,255,255,0.22)"/><rect x="316" y="430" width="8" height="10" fill="rgba(255,255,255,0.1)"/><rect x="316" y="456" width="8" height="10" fill="rgba(255,255,255,0.22)"/><rect x="338" y="482" width="8" height="10" fill="rgba(255,255,255,0.1)"/><rect x="371" y="380" width="105" height="140" fill="rgba(255,255,255,0.07)"/><rect x="423" y="414" width="8" height="10" fill="rgba(255,255,255,0.1)"/><rect x="379" y="440" width="8" height="10" fill="rgba(255,255,255,0.22)"/><rect x="445" y="440" width="8" height="10" fill="rgba(255,255,255,0.1)"/><rect x="401" y="466" width="8" height="10" fill="rgba(255,255,255,0.22)"/><rect x="379" y="492" width="8" height="10" fill="rgba(255,255,255,0.1)"/><rect x="423" y="492" width="8" height="10" fill="rgba(255,255,255,0.22)"/><rect x="484" y="414" width="51" height="106" fill="rgba(255,255,255,0.07)"/><rect x="514" y="448" width="8" height="10" fill="rgba(255,255,255,0.22)"/><rect x="543" y="272" width="93" height="248" fill="rgba(255,255,255,0.07)"/><rect x="551" y="306" width="8" height="10" fill="rgba(255,255,255,0.22)"/><rect x="617" y="306" width="8" height="10" fill="rgba(255,255,255,0.1)"/><rect x="573" y="332" width="8" height="10" fill="rgba(255,255,255,0.22)"/><rect x="551" y="358" width="8" height="10" fill="rgba(255,255,255,0.1)"/><rect x="595" y="358" width="8" height="10" fill="rgba(255,255,255,0.22)"/><rect x="573" y="384" width="8" height="10" fill="rgba(255,255,255,0.1)"/><rect x="617" y="384" width="8" height="10" fill="rgba(255,255,255,0.22)"/><rect x="595" y="410" width="8" height="10" fill="rgba(255,255,255,0.1)"/><rect x="551" y="436" width="8" height="10" fill="rgba(255,255,255,0.22)"/><rect x="617" y="436" width="8" height="10" fill="rgba(255,255,255,0.1)"/><rect x="573" y="462" width="8" height="10" fill="rgba(255,255,255,0.22)"/><rect x="551" y="488" width="8" height="10" fill="rgba(255,255,255,0.1)"/><rect x="595" y="488" width="8" height="10" fill="rgba(255,255,255,0.22)"/><rect x="644" y="354" width="61" height="166" fill="rgba(255,255,255,0.07)"/><rect x="674" y="388" width="8" height="10" fill="rgba(255,255,255,0.22)"/><rect x="652" y="440" width="8" height="10" fill="rgba(255,255,255,0.1)"/><rect x="652" y="466" width="8" height="10" fill="rgba(255,255,255,0.22)"/><rect x="674" y="492" width="8" height="10" fill="rgba(255,255,255,0.1)"/><rect x="713" y="250" width="55" height="270" fill="rgba(255,255,255,0.07)"/><rect x="721" y="310" width="8" height="10" fill="rgba(255,255,255,0.1)"/><rect x="721" y="336" width="8" height="10" fill="rgba(255,255,255,0.22)"/><rect x="743" y="362" width="8" height="10" fill="rgba(255,255,255,0.1)"/><rect x="743" y="388" width="8" height="10" fill="rgba(255,255,255,0.22)"/><rect x="721" y="440" width="8" height="10" fill="rgba(255,255,255,0.1)"/><rect x="721" y="466" width="8" height="10" fill="rgba(255,255,255,0.22)"/><rect x="743" y="492" width="8" height="10" fill="rgba(255,255,255,0.1)"/><rect x="776" y="350" width="105" height="170" fill="rgba(255,255,255,0.07)"/><rect x="828" y="384" width="8" height="10" fill="rgba(255,255,255,0.1)"/><rect x="784" y="410" width="8" height="10" fill="rgba(255,255,255,0.22)"/><rect x="850" y="410" width="8" height="10" fill="rgba(255,255,255,0.1)"/><rect x="806" y="436" width="8" height="10" fill="rgba(255,255,255,0.22)"/><rect x="784" y="462" width="8" height="10" fill="rgba(255,255,255,0.1)"/><rect x="828" y="462" width="8" height="10" fill="rgba(255,255,255,0.22)"/><rect x="806" y="488" width="8" height="10" fill="rgba(255,255,255,0.1)"/><rect x="850" y="488" width="8" height="10" fill="rgba(255,255,255,0.22)"/><rect x="889" y="396" width="79" height="124" fill="rgba(255,255,255,0.07)"/><rect x="897" y="430" width="8" height="10" fill="rgba(255,255,255,0.1)"/><rect x="941" y="430" width="8" height="10" fill="rgba(255,255,255,0.22)"/><rect x="941" y="456" width="8" height="10" fill="rgba(255,255,255,0.1)"/><rect x="919" y="482" width="8" height="10" fill="rgba(255,255,255,0.22)"/><rect x="976" y="389" width="66" height="131" fill="rgba(255,255,255,0.07)"/><rect x="1006" y="423" width="8" height="10" fill="rgba(255,255,255,0.22)"/><rect x="1006" y="449" width="8" height="10" fill="rgba(255,255,255,0.1)"/><rect x="984" y="475" width="8" height="10" fill="rgba(255,255,255,0.22)"/><rect x="1050" y="202" width="83" height="318" fill="rgba(255,255,255,0.07)"/><rect x="1058" y="236" width="8" height="10" fill="rgba(255,255,255,0.22)"/><rect x="1058" y="262" width="8" height="10" fill="rgba(255,255,255,0.1)"/><rect x="1102" y="262" width="8" height="10" fill="rgba(255,255,255,0.22)"/><rect x="1102" y="288" width="8" height="10" fill="rgba(255,255,255,0.1)"/><rect x="1080" y="314" width="8" height="10" fill="rgba(255,255,255,0.22)"/><rect x="1080" y="340" width="8" height="10" fill="rgba(255,255,255,0.1)"/><rect x="1058" y="366" width="8" height="10" fill="rgba(255,255,255,0.22)"/><rect x="1058" y="392" width="8" height="10" fill="rgba(255,255,255,0.1)"/><rect x="1102" y="392" width="8" height="10" fill="rgba(255,255,255,0.22)"/><rect x="1102" y="418" width="8" height="10" fill="rgba(255,255,255,0.1)"/><rect x="1080" y="444" width="8" height="10" fill="rgba(255,255,255,0.22)"/><rect x="1080" y="470" width="8" height="10" fill="rgba(255,255,255,0.1)"/><rect x="1058" y="496" width="8" height="10" fill="rgba(255,255,255,0.22)"/><rect x="1141" y="287" width="118" height="233" fill="rgba(255,255,255,0.07)"/><rect x="1149" y="321" width="8" height="10" fill="rgba(255,255,255,0.22)"/><rect x="1215" y="321" width="8" height="10" fill="rgba(255,255,255,0.1)"/><rect x="1149" y="347" width="8" height="10" fill="rgba(255,255,255,0.22)"/><rect x="1215" y="347" width="8" height="10" fill="rgba(255,255,255,0.1)"/><rect x="1149" y="373" width="8" height="10" fill="rgba(255,255,255,0.22)"/><rect x="1215" y="373" width="8" height="10" fill="rgba(255,255,255,0.1)"/><rect x="1149" y="399" width="8" height="10" fill="rgba(255,255,255,0.22)"/><rect x="1215" y="399" width="8" height="10" fill="rgba(255,255,255,0.1)"/><rect x="1149" y="425" width="8" height="10" fill="rgba(255,255,255,0.22)"/><rect x="1215" y="425" width="8" height="10" fill="rgba(255,255,255,0.1)"/><rect x="1149" y="451" width="8" height="10" fill="rgba(255,255,255,0.22)"/><rect x="1215" y="451" width="8" height="10" fill="rgba(255,255,255,0.1)"/><rect x="1149" y="477" width="8" height="10" fill="rgba(255,255,255,0.22)"/><rect x="1215" y="477" width="8" height="10" fill="rgba(255,255,255,0.1)"/>
  <rect y="518" width="1200" height="157" fill="rgba(13,18,48,0.55)"/>
  <text x="48" y="590" font-family="monospace" font-size="15" letter-spacing="4" fill="rgba(255,255,255,0.55)">VIEW — 03</text>
  <text x="48" y="632" font-family="Georgia, serif" font-size="40" fill="#ffffff">Saint-Tropez</text>
  <g transform="translate(1080,560) scale(0.28)" opacity="0.5">
    <circle cx="145" cy="145" r="145" fill="rgba(255,255,255,0.15)"/>
  </g>
  <text x="1152" y="60" text-anchor="end" font-family="monospace" font-size="13" letter-spacing="3" fill="rgba(255,255,255,0.4)">MRT · TOKENIZED ASSET</text>
</svg>