<svg xmlns="http://www.w3.org/2000/svg" width="1200" height="675" viewBox="0 0 1200 675">
  <defs>
    <linearGradient id="bg" x1="0" y1="0" x2="0" y2="1">
      <stop offset="0" stop-color="rgb(36,64,150)"/>
      <stop offset="1" stop-color="rgb(24,48,110)"/>
    </linearGradient>
    <pattern id="grid" width="30" height="30" patternUnits="userSpaceOnUse">
      <path d="M30 0H0V30" fill="none" stroke="rgba(231,233,237,0.10)" stroke-width="1"/>
    </pattern>
  </defs>
  <rect width="1200" height="675" fill="url(#bg)"/>
  <rect width="1200" height="675" fill="url(#grid)"/>
  <rect x="0" y="278" width="47" height="242" fill="rgba(255,255,255,0.07)"/><rect x="30" y="312" width="8" height="10" fill="rgba(255,255,255,0.1)"/><rect x="30" y="338" width="8" height="10" fill="rgba(255,255,255,0.22)"/><rect x="8" y="390" width="8" height="10" fill="rgba(255,255,255,0.1)"/><rect x="8" y="416" width="8" height="10" fill="rgba(255,255,255,0.22)"/><rect x="30" y="442" width="8" height="10" fill="rgba(255,255,255,0.1)"/><rect x="30" y="468" width="8" height="10" fill="rgba(255,255,255,0.22)"/><rect x="55" y="392" width="83" height="128" fill="rgba(255,255,255,0.07)"/><rect x="63" y="426" width="8" height="10" fill="rgba(255,255,255,0.22)"/><rect x="63" y="452" width="8" height="10" fill="rgba(255,255,255,0.1)"/><rect x="107" y="452" width="8" height="10" fill="rgba(255,255,255,0.22)"/><rect x="107" y="478" width="8" height="10" fill="rgba(255,255,255,0.1)"/><rect x="146" y="245" width="40" height="275" fill="rgba(255,255,255,0.07)"/><rect x="154" y="331" width="8" height="10" fill="rgba(255,255,255,0.1)"/><rect x="154" y="383" width="8" height="10" fill="rgba(255,255,255,0.22)"/><rect x="154" y="461" width="8" height="10" fill="rgba(255,255,255,0.1)"/><rect x="194" y="318" width="117" height="202" fill="rgba(255,255,255,0.07)"/><rect x="224" y="352" width="8" height="10" fill="rgba(255,255,255,0.1)"/><rect x="268" y="352" width="8" height="10" fill="rgba(255,255,255,0.22)"/><rect x="224" y="378" width="8" height="10" fill="rgba(255,255,255,0.1)"/><rect x="268" y="378" width="8" height="10" fill="rgba(255,255,255,0.22)"/><rect x="224" y="404" width="8" height="10" fill="rgba(255,255,255,0.1)"/><rect x="268" y="404" width="8" height="10" fill="rgba(255,255,255,0.22)"/><rect x="224" y="430" width="8" height="10" fill="rgba(255,255,255,0.1)"/><rect x="268" y="430" width="8" height="10" fill="rgba(255,255,255,0.22)"/><rect x="224" y="456" width="8" height="10" fill="rgba(255,255,255,0.1)"/><rect x="268" y="456" width="8" height="10" fill="rgba(255,255,255,0.22)"/><rect x="224" y="482" width="8" height="10" fill="rgba(255,255,255,0.1)"/><rect x="268" y="482" width="8" height="10" fill="rgba(255,255,255,0.22)"/><rect x="319" y="434" width="101" height="86" fill="rgba(255,255,255,0.07)"/><rect x="349" y="468" width="8" height="10" fill="rgba(255,255,255,0.22)"/><rect x="327" y="494" width="8" height="10" fill="rgba(255,255,255,0.1)"/><rect x="371" y="494" width="8" height="10" fill="rgba(255,255,255,0.22)"/><rect x="428" y="224" width="51" height="296" fill="rgba(255,255,255,0.07)"/><rect x="458" y="258" width="8" height="10" fill="rgba(255,255,255,0.22)"/><rect x="436" y="310" width="8" height="10" fill="rgba(255,255,255,0.1)"/><rect x="436" y="336" width="8" height="10" fill="rgba(255,255,255,0.22)"/><rect x="458" y="362" width="8" height="10" fill="rgba(255,255,255,0.1)"/><rect x="458" y="388" width="8" height="10" fill="rgba(255,255,255,0.22)"/><rect x="436" y="440" width="8" height="10" fill="rgba(255,255,255,0.1)"/><rect x="436" y="466" width="8" height="10" fill="rgba(255,255,255,0.22)"/><rect x="458" y="492" width="8" height="10" fill="rgba(255,255,255,0.1)"/><rect x="487" y="310" width="115" height="210" fill="rgba(255,255,255,0.07)"/><rect x="539" y="344" width="8" height="10" fill="rgba(255,255,255,0.1)"/><rect x="583" y="344" width="8" height="10" fill="rgba(255,255,255,0.22)"/><rect x="539" y="370" width="8" height="10" fill="rgba(255,255,255,0.1)"/><rect x="583" y="370" width="8" height="10" fill="rgba(255,255,255,0.22)"/><rect x="539" y="396" width="8" height="10" fill="rgba(255,255,255,0.1)"/><rect x="583" y="396" width="8" height="10" fill="rgba(255,255,255,0.22)"/><rect x="539" y="422" width="8" height="10" fill="rgba(255,255,255,0.1)"/><rect x="583" y="422" width="8" height="10" fill="rgba(255,255,255,0.22)"/><rect x="539" y="448" width="8" height="10" fill="rgba(255,255,255,0.1)"/><rect x="583" y="448" width="8" height="10" fill="rgba(255,255,255,0.22)"/><rect x="539" y="474" width="8" height="10" fill="rgba(255,255,255,0.1)"/><rect x="583" y="474" width="8" height="10" fill="rgba(255,255,255,0.22)"/><rect x="610" y="346" width="69" height="174" fill="rgba(255,255,255,0.07)"/><rect x="618" y="380" width="8" height="10" fill="rgba(255,255,255,0.1)"/><rect x="662" y="380" width="8" height="10" fill="rgba(255,255,255,0.22)"/><rect x="662" y="406" width="8" height="10" fill="rgba(255,255,255,0.1)"/><rect x="640" y="432" width="8" height="10" fill="rgba(255,255,255,0.22)"/><rect x="640" y="458" width="8" height="10" fill="rgba(255,255,255,0.1)"/><rect x="618" y="484" width="8" height="10" fill="rgba(255,255,255,0.22)"/><rect x="687" y="297" width="38" height="223" fill="rgba(255,255,255,0.07)"/><rect x="695" y="331" width="8" height="10" fill="rgba(255,255,255,0.22)"/><rect x="695" y="409" width="8" height="10" fill="rgba(255,255,255,0.1)"/><rect x="695" y="461" width="8" height="10" fill="rgba(255,255,255,0.22)"/><rect x="733" y="244" width="101" height="276" fill="rgba(255,255,255,0.07)"/><rect x="763" y="278" width="8" height="10" fill="rgba(255,255,255,0.22)"/><rect x="741" y="304" width="8" height="10" fill="rgba(255,255,255,0.1)"/><rect x="785" y="304" width="8" height="10" fill="rgba(255,255,255,0.22)"/><rect x="763" y="330" width="8" height="10" fill="rgba(255,255,255,0.1)"/><rect x="807" y="330" width="8" height="10" fill="rgba(255,255,255,0.22)"/><rect x="785" y="356" width="8" height="10" fill="rgba(255,255,255,0.1)"/><rect x="741" y="382" width="8" height="10" fill="rgba(255,255,255,0.22)"/><rect x="807" y="382" width="8" height="10" fill="rgba(255,255,255,0.1)"/><rect x="763" y="408" width="8" height="10" fill="rgba(255,255,255,0.22)"/><rect x="741" y="434" width="8" height="10" fill="rgba(255,255,255,0.1)"/><rect x="785" y="434" width="8" height="10" fill="rgba(255,255,255,0.22)"/><rect x="763" y="460" width="8" height="10" fill="rgba(255,255,255,0.1)"/><rect x="807" y="460" width="8" height="10" fill="rgba(255,255,255,0.22)"/><rect x="785" y="486" width="8" height="10" fill="rgba(255,255,255,0.1)"/><rect x="842" y="318" width="67" height="202" fill="rgba(255,255,255,0.07)"/><rect x="872" y="352" width="8" height="10" fill="rgba(255,255,255,0.1)"/><rect x="850" y="378" width="8" height="10" fill="rgba(255,255,255,0.22)"/><rect x="850" y="404" width="8" height="10" fill="rgba(255,255,255,0.1)"/><rect x="894" y="404" width="8" height="10" fill="rgba(255,255,255,0.22)"/><rect x="894" y="430" width="8" height="10" fill="rgba(255,255,255,0.1)"/><rect x="872" y="456" width="8" height="10" fill="rgba(255,255,255,0.22)"/><rect x="872" y="482" width="8" height="10" fill="rgba(255,255,255,0.1)"/><rect x="917" y="338" width="117" height="182" fill="rgba(255,255,255,0.07)"/><rect x="947" y="372" width="8" height="10" fill="rgba(255,255,255,0.1)"/><rect x="991" y="372" width="8" height="10" fill="rgba(255,255,255,0.22)"/><rect x="947" y="398" width="8" height="10" fill="rgba(255,255,255,0.1)"/><rect x="991" y="398" width="8" height="10" fill="rgba(255,255,255,0.22)"/><rect x="947" y="424" width="8" height="10" fill="rgba(255,255,255,0.1)"/><rect x="991" y="424" width="8" height="10" fill="rgba(255,255,255,0.22)"/><rect x="947" y="450" width="8" height="10" fill="rgba(255,255,255,0.1)"/><rect x="991" y="450" width="8" height="10" fill="rgba(255,255,255,0.22)"/><rect x="947" y="476" width="8" height="10" fill="rgba(255,255,255,0.1)"/><rect x="991" y="476" width="8" height="10" fill="rgba(255,255,255,0.22)"/><rect x="1042" y="279" width="36" height="241" fill="rgba(255,255,255,0.07)"/><rect x="1050" y="339" width="8" height="10" fill="rgba(255,255,255,0.22)"/><rect x="1050" y="417" width="8" height="10" fill="rgba(255,255,255,0.1)"/><rect x="1050" y="469" width="8" height="10" fill="rgba(255,255,255,0.22)"/><rect x="1086" y="429" width="106" height="91" fill="rgba(255,255,255,0.07)"/><rect x="1116" y="463" width="8" height="10" fill="rgba(255,255,255,0.22)"/><rect x="1094" y="489" width="8" height="10" fill="rgba(255,255,255,0.1)"/><rect x="1138" y="489" width="8" height="10" fill="rgba(255,255,255,0.22)"/>
  <rect y="518" width="1200" height="157" fill="rgba(13,18,48,0.55)"/>
  <text x="48" y="590" font-family="monospace" font-size="15" letter-spacing="4" fill="rgba(255,255,255,0.55)">EXTERIOR — 01</text>
  <text x="48" y="632" font-family="Georgia, serif" font-size="40" fill="#ffffff">Saint-Tropez</text>
  <g transform="translate(1080,560) scale(0.28)" opacity="0.5">
    <circle cx="145" cy="145" r="145" fill="rgba(255,255,255,0.15)"/>
  </g>
  <text x="1152" y="60" text-anchor="end" font-family="monospace" font-size="13" letter-spacing="3" fill="rgba(255,255,255,0.4)">MRT · TOKENIZED ASSET</text>
</svg>