<svg xmlns="http://www.w3.org/2000/svg" width="1200" height="675" viewBox="0 0 1200 675">
  <defs>
    <linearGradient id="bg" x1="0" y1="0" x2="0" y2="1">
      <stop offset="0" stop-color="rgb(41,53,124)"/>
      <stop offset="1" stop-color="rgb(29,37,84)"/>
    </linearGradient>
    <pattern id="grid" width="30" height="30" patternUnits="userSpaceOnUse">
      <path d="M30 0H0V30" fill="none" stroke="rgba(231,233,237,0.10)" stroke-width="1"/>
    </pattern>
  </defs>
  <rect width="1200" height="675" fill="url(#bg)"/>
  <rect width="1200" height="675" fill="url(#grid)"/>
  <rect x="0" y="371" width="84" height="149" fill="rgba(255,255,255,0.07)"/><rect x="8" y="405" width="8" height="10" fill="rgba(255,255,255,0.1)"/><rect x="52" y="405" width="8" height="10" fill="rgba(255,255,255,0.22)"/><rect x="52" y="431" width="8" height="10" fill="rgba(255,255,255,0.1)"/><rect x="30" y="457" width="8" height="10" fill="rgba(255,255,255,0.22)"/><rect x="30" y="483" width="8" height="10" fill="rgba(255,255,255,0.1)"/><rect x="92" y="373" width="32" height="147" fill="rgba(255,255,255,0.07)"/><rect x="100" y="433" width="8" height="10" fill="rgba(255,255,255,0.1)"/><rect x="100" y="485" width="8" height="10" fill="rgba(255,255,255,0.22)"/><rect x="132" y="191" width="74" height="329" fill="rgba(255,255,255,0.07)"/><rect x="140" y="225" width="8" height="10" fill="rgba(255,255,255,0.1)"/><rect x="184" y="225" width="8" height="10" fill="rgba(255,255,255,0.22)"/><rect x="184" y="251" width="8" height="10" fill="rgba(255,255,255,0.1)"/><rect x="162" y="277" width="8" height="10" fill="rgba(255,255,255,0.22)"/><rect x="162" y="303" width="8" height="10" fill="rgba(255,255,255,0.1)"/><rect x="140" y="329" width="8" height="10" fill="rgba(255,255,255,0.22)"/><rect x="140" y="355" width="8" height="10" fill="rgba(255,255,255,0.1)"/><rect x="184" y="355" width="8" height="10" fill="rgba(255,255,255,0.22)"/><rect x="184" y="381" width="8" height="10" fill="rgba(255,255,255,0.1)"/><rect x="162" y="407" width="8" height="10" fill="rgba(255,255,255,0.22)"/><rect x="162" y="433" width="8" height="10" fill="rgba(255,255,255,0.1)"/><rect x="140" y="459" width="8" height="10" fill="rgba(255,255,255,0.22)"/><rect x="140" y="485" width="8" height="10" fill="rgba(255,255,255,0.1)"/><rect x="184" y="485" width="8" height="10" fill="rgba(255,255,255,0.22)"/><rect x="214" y="216" width="109" height="304" fill="rgba(255,255,255,0.07)"/><rect x="222" y="250" width="8" height="10" fill="rgba(255,255,255,0.1)"/><rect x="266" y="250" width="8" height="10" fill="rgba(255,255,255,0.22)"/><rect x="222" y="276" width="8" height="10" fill="rgba(255,255,255,0.1)"/><rect x="266" y="276" width="8" height="10" fill="rgba(255,255,255,0.22)"/><rect x="222" y="302" width="8" height="10" fill="rgba(255,255,255,0.1)"/><rect x="266" y="302" width="8" height="10" fill="rgba(255,255,255,0.22)"/><rect x="222" y="328" width="8" height="10" fill="rgba(255,255,255,0.1)"/><rect x="266" y="328" width="8" height="10" fill="rgba(255,255,255,0.22)"/><rect x="222" y="354" width="8" height="10" fill="rgba(255,255,255,0.1)"/><rect x="266" y="354" width="8" height="10" fill="rgba(255,255,255,0.22)"/><rect x="222" y="380" width="8" height="10" fill="rgba(255,255,255,0.1)"/><rect x="266" y="380" width="8" height="10" fill="rgba(255,255,255,0.22)"/><rect x="222" y="406" width="8" height="10" fill="rgba(255,255,255,0.1)"/><rect x="266" y="406" width="8" height="10" fill="rgba(255,255,255,0.22)"/><rect x="222" y="432" width="8" height="10" fill="rgba(255,255,255,0.1)"/><rect x="266" y="432" width="8" height="10" fill="rgba(255,255,255,0.22)"/><rect x="222" y="458" width="8" height="10" fill="rgba(255,255,255,0.1)"/><rect x="266" y="458" width="8" height="10" fill="rgba(255,255,255,0.22)"/><rect x="222" y="484" width="8" height="10" fill="rgba(255,255,255,0.1)"/><rect x="266" y="484" width="8" height="10" fill="rgba(255,255,255,0.22)"/><rect x="331" y="192" width="53" height="328" fill="rgba(255,255,255,0.07)"/><rect x="339" y="226" width="8" height="10" fill="rgba(255,255,255,0.22)"/><rect x="361" y="252" width="8" height="10" fill="rgba(255,255,255,0.1)"/><rect x="361" y="278" width="8" height="10" fill="rgba(255,255,255,0.22)"/><rect x="339" y="330" width="8" height="10" fill="rgba(255,255,255,0.1)"/><rect x="339" y="356" width="8" height="10" fill="rgba(255,255,255,0.22)"/><rect x="361" y="382" width="8" height="10" fill="rgba(255,255,255,0.1)"/><rect x="361" y="408" width="8" height="10" fill="rgba(255,255,255,0.22)"/><rect x="339" y="460" width="8" height="10" fill="rgba(255,255,255,0.1)"/><rect x="339" y="486" width="8" height="10" fill="rgba(255,255,255,0.22)"/><rect x="392" y="204" width="41" height="316" fill="rgba(255,255,255,0.07)"/><rect x="422" y="238" width="8" height="10" fill="rgba(255,255,255,0.22)"/><rect x="400" y="290" width="8" height="10" fill="rgba(255,255,255,0.1)"/><rect x="400" y="316" width="8" height="10" fill="rgba(255,255,255,0.22)"/><rect x="422" y="342" width="8" height="10" fill="rgba(255,255,255,0.1)"/><rect x="422" y="368" width="8" height="10" fill="rgba(255,255,255,0.22)"/><rect x="400" y="420" width="8" height="10" fill="rgba(255,255,255,0.1)"/><rect x="400" y="446" width="8" height="10" fill="rgba(255,255,255,0.22)"/><rect x="422" y="472" width="8" height="10" fill="rgba(255,255,255,0.1)"/><rect x="422" y="498" width="8" height="10" fill="rgba(255,255,255,0.22)"/><rect x="441" y="316" width="119" height="204" fill="rgba(255,255,255,0.07)"/><rect x="449" y="350" width="8" height="10" fill="rgba(255,255,255,0.1)"/><rect x="493" y="350" width="8" height="10" fill="rgba(255,255,255,0.22)"/><rect x="449" y="376" width="8" height="10" fill="rgba(255,255,255,0.1)"/><rect x="493" y="376" width="8" height="10" fill="rgba(255,255,255,0.22)"/><rect x="449" y="402" width="8" height="10" fill="rgba(255,255,255,0.1)"/><rect x="493" y="402" width="8" height="10" fill="rgba(255,255,255,0.22)"/><rect x="449" y="428" width="8" height="10" fill="rgba(255,255,255,0.1)"/><rect x="493" y="428" width="8" height="10" fill="rgba(255,255,255,0.22)"/><rect x="449" y="454" width="8" height="10" fill="rgba(255,255,255,0.1)"/><rect x="493" y="454" width="8" height="10" fill="rgba(255,255,255,0.22)"/><rect x="449" y="480" width="8" height="10" fill="rgba(255,255,255,0.1)"/><rect x="493" y="480" width="8" height="10" fill="rgba(255,255,255,0.22)"/><rect x="568" y="232" width="43" height="288" fill="rgba(255,255,255,0.07)"/><rect x="576" y="266" width="8" height="10" fill="rgba(255,255,255,0.22)"/><rect x="598" y="292" width="8" height="10" fill="rgba(255,255,255,0.1)"/><rect x="598" y="318" width="8" height="10" fill="rgba(255,255,255,0.22)"/><rect x="576" y="370" width="8" height="10" fill="rgba(255,255,255,0.1)"/><rect x="576" y="396" width="8" height="10" fill="rgba(255,255,255,0.22)"/><rect x="598" y="422" width="8" height="10" fill="rgba(255,255,255,0.1)"/><rect x="598" y="448" width="8" height="10" fill="rgba(255,255,255,0.22)"/><rect x="619" y="252" width="93" height="268" fill="rgba(255,255,255,0.07)"/><rect x="627" y="286" width="8" height="10" fill="rgba(255,255,255,0.22)"/><rect x="693" y="286" width="8" height="10" fill="rgba(255,255,255,0.1)"/><rect x="649" y="312" width="8" height="10" fill="rgba(255,255,255,0.22)"/><rect x="627" y="338" width="8" height="10" fill="rgba(255,255,255,0.1)"/><rect x="671" y="338" width="8" height="10" fill="rgba(255,255,255,0.22)"/><rect x="649" y="364" width="8" height="10" fill="rgba(255,255,255,0.1)"/><rect x="693" y="364" width="8" height="10" fill="rgba(255,255,255,0.22)"/><rect x="671" y="390" width="8" height="10" fill="rgba(255,255,255,0.1)"/><rect x="627" y="416" width="8" height="10" fill="rgba(255,255,255,0.22)"/><rect x="693" y="416" width="8" height="10" fill="rgba(255,255,255,0.1)"/><rect x="649" y="442" width="8" height="10" fill="rgba(255,255,255,0.22)"/><rect x="627" y="468" width="8" height="10" fill="rgba(255,255,255,0.1)"/><rect x="671" y="468" width="8" height="10" fill="rgba(255,255,255,0.22)"/><rect x="649" y="494" width="8" height="10" fill="rgba(255,255,255,0.1)"/><rect x="693" y="494" width="8" height="10" fill="rgba(255,255,255,0.22)"/><rect x="720" y="426" width="119" height="94" fill="rgba(255,255,255,0.07)"/><rect x="728" y="460" width="8" height="10" fill="rgba(255,255,255,0.1)"/><rect x="772" y="460" width="8" height="10" fill="rgba(255,255,255,0.22)"/><rect x="728" y="486" width="8" height="10" fill="rgba(255,255,255,0.1)"/><rect x="772" y="486" width="8" height="10" fill="rgba(255,255,255,0.22)"/><rect x="847" y="362" width="113" height="158" fill="rgba(255,255,255,0.07)"/><rect x="855" y="396" width="8" height="10" fill="rgba(255,255,255,0.22)"/><rect x="921" y="396" width="8" height="10" fill="rgba(255,255,255,0.1)"/><rect x="855" y="422" width="8" height="10" fill="rgba(255,255,255,0.22)"/><rect x="921" y="422" width="8" height="10" fill="rgba(255,255,255,0.1)"/><rect x="855" y="448" width="8" height="10" fill="rgba(255,255,255,0.22)"/><rect x="921" y="448" width="8" height="10" fill="rgba(255,255,255,0.1)"/><rect x="855" y="474" width="8" height="10" fill="rgba(255,255,255,0.22)"/><rect x="921" y="474" width="8" height="10" fill="rgba(255,255,255,0.1)"/><rect x="968" y="348" width="57" height="172" fill="rgba(255,255,255,0.07)"/><rect x="998" y="382" width="8" height="10" fill="rgba(255,255,255,0.1)"/><rect x="998" y="408" width="8" height="10" fill="rgba(255,255,255,0.22)"/><rect x="976" y="460" width="8" height="10" fill="rgba(255,255,255,0.1)"/><rect x="976" y="486" width="8" height="10" fill="rgba(255,255,255,0.22)"/><rect x="1033" y="404" width="51" height="116" fill="rgba(255,255,255,0.07)"/><rect x="1063" y="438" width="8" height="10" fill="rgba(255,255,255,0.22)"/><rect x="1041" y="490" width="8" height="10" fill="rgba(255,255,255,0.1)"/><rect x="1092" y="388" width="47" height="132" fill="rgba(255,255,255,0.07)"/><rect x="1122" y="422" width="8" height="10" fill="rgba(255,255,255,0.1)"/><rect x="1122" y="448" width="8" height="10" fill="rgba(255,255,255,0.22)"/><rect x="1147" y="232" width="73" height="288" fill="rgba(255,255,255,0.07)"/><rect x="1155" y="266" width="8" height="10" fill="rgba(255,255,255,0.22)"/><rect x="1155" y="292" width="8" height="10" fill="rgba(255,255,255,0.1)"/><rect x="1199" y="292" width="8" height="10" fill="rgba(255,255,255,0.22)"/><rect x="1199" y="318" width="8" height="10" fill="rgba(255,255,255,0.1)"/><rect x="1177" y="344" width="8" height="10" fill="rgba(255,255,255,0.22)"/><rect x="1177" y="370" width="8" height="10" fill="rgba(255,255,255,0.1)"/><rect x="1155" y="396" width="8" height="10" fill="rgba(255,255,255,0.22)"/><rect x="1155" y="422" width="8" height="10" fill="rgba(255,255,255,0.1)"/><rect x="1199" y="422" width="8" height="10" fill="rgba(255,255,255,0.22)"/><rect x="1199" y="448" width="8" height="10" fill="rgba(255,255,255,0.1)"/><rect x="1177" y="474" width="8" height="10" fill="rgba(255,255,255,0.22)"/>
  <rect y="518" width="1200" height="157" fill="rgba(13,18,48,0.55)"/>
  <text x="48" y="590" font-family="monospace" font-size="15" letter-spacing="4" fill="rgba(255,255,255,0.55)">INTERIOR — 02</text>
  <text x="48" y="632" font-family="Georgia, serif" font-size="40" fill="#ffffff">Saint-Tropez</text>
  <g transform="translate(1080,560) scale(0.28)" opacity="0.5">
    <circle cx="145" cy="145" r="145" fill="rgba(255,255,255,0.15)"/>
  </g>
  <text x="1152" y="60" text-anchor="end" font-family="monospace" font-size="13" letter-spacing="3" fill="rgba(255,255,255,0.4)">MRT · TOKENIZED ASSET</text>
</svg>